<svg xmlns="http://www.w3.org/2000/svg" width="3840" height="2160" viewBox="0 0 3840 2160">
  <defs>
    <linearGradient id="bg" x1="0" y1="0" x2="1" y2="1">
      <stop offset="0%" stop-color="#0a1024"/>
      <stop offset="100%" stop-color="#000000"/>
    </linearGradient>
    <radialGradient id="topGlow" cx="15%" cy="10%" r="50%">
      <stop offset="0%" stop-color="#00b7ff" stop-opacity="0.22"/>
      <stop offset="100%" stop-color="#00b7ff" stop-opacity="0"/>
    </radialGradient>
    <radialGradient id="botGlow" cx="12%" cy="88%" r="55%">
      <stop offset="0%" stop-color="#ff7300" stop-opacity="0.16"/>
      <stop offset="100%" stop-color="#ff7300" stop-opacity="0"/>
    </radialGradient>
    <filter id="soft" x="-20%" y="-20%" width="140%" height="140%">
      <feGaussianBlur stdDeviation="0.35"/>
    </filter>
  </defs>

  <!-- Background -->
  <rect width="3840" height="2160" fill="url(#bg)"/>
  <rect width="3840" height="2160" fill="url(#topGlow)"/>
  <rect width="3840" height="2160" fill="url(#botGlow)"/>

  <!-- Grid -->
  <g stroke="#00b7ff" stroke-opacity="0.12" filter="url(#soft)">
    <line x1="84" y1="0" x2="84" y2="2160"/><line x1="168" y1="0" x2="168" y2="2160"/><line x1="252" y1="0" x2="252" y2="2160"/><line x1="336" y1="0" x2="336" y2="2160"/><line x1="420" y1="0" x2="420" y2="2160"/><line x1="504" y1="0" x2="504" y2="2160"/><line x1="588" y1="0" x2="588" y2="2160"/><line x1="672" y1="0" x2="672" y2="2160"/><line x1="756" y1="0" x2="756" y2="2160"/><line x1="840" y1="0" x2="840" y2="2160"/><line x1="924" y1="0" x2="924" y2="2160"/><line x1="1008" y1="0" x2="1008" y2="2160"/><line x1="1092" y1="0" x2="1092" y2="2160"/><line x1="1176" y1="0" x2="1176" y2="2160"/><line x1="1260" y1="0" x2="1260" y2="2160"/><line x1="1344" y1="0" x2="1344" y2="2160"/><line x1="1428" y1="0" x2="1428" y2="2160"/><line x1="1512" y1="0" x2="1512" y2="2160"/><line x1="1596" y1="0" x2="1596" y2="2160"/><line x1="1680" y1="0" x2="1680" y2="2160"/><line x1="1764" y1="0" x2="1764" y2="2160"/><line x1="1848" y1="0" x2="1848" y2="2160"/><line x1="1932" y1="0" x2="1932" y2="2160"/><line x1="2016" y1="0" x2="2016" y2="2160"/><line x1="2100" y1="0" x2="2100" y2="2160"/><line x1="2184" y1="0" x2="2184" y2="2160"/><line x1="2268" y1="0" x2="2268" y2="2160"/><line x1="2352" y1="0" x2="2352" y2="2160"/><line x1="2436" y1="0" x2="2436" y2="2160"/><line x1="2520" y1="0" x2="2520" y2="2160"/><line x1="2604" y1="0" x2="2604" y2="2160"/><line x1="2688" y1="0" x2="2688" y2="2160"/><line x1="2772" y1="0" x2="2772" y2="2160"/><line x1="2856" y1="0" x2="2856" y2="2160"/><line x1="2940" y1="0" x2="2940" y2="2160"/><line x1="3024" y1="0" x2="3024" y2="2160"/><line x1="3108" y1="0" x2="3108" y2="2160"/><line x1="3192" y1="0" x2="3192" y2="2160"/><line x1="3276" y1="0" x2="3276" y2="2160"/><line x1="3360" y1="0" x2="3360" y2="2160"/><line x1="3444" y1="0" x2="3444" y2="2160"/><line x1="3528" y1="0" x2="3528" y2="2160"/><line x1="3612" y1="0" x2="3612" y2="2160"/><line x1="3696" y1="0" x2="3696" y2="2160"/><line x1="3780" y1="0" x2="3780" y2="2160"/><line x1="0" y1="78" x2="3840" y2="78"/><line x1="0" y1="156" x2="3840" y2="156"/><line x1="0" y1="234" x2="3840" y2="234"/><line x1="0" y1="312" x2="3840" y2="312"/><line x1="0" y1="390" x2="3840" y2="390"/><line x1="0" y1="468" x2="3840" y2="468"/><line x1="0" y1="546" x2="3840" y2="546"/><line x1="0" y1="624" x2="3840" y2="624"/><line x1="0" y1="702" x2="3840" y2="702"/><line x1="0" y1="780" x2="3840" y2="780"/><line x1="0" y1="858" x2="3840" y2="858"/><line x1="0" y1="936" x2="3840" y2="936"/><line x1="0" y1="1014" x2="3840" y2="1014"/><line x1="0" y1="1092" x2="3840" y2="1092"/><line x1="0" y1="1170" x2="3840" y2="1170"/><line x1="0" y1="1248" x2="3840" y2="1248"/><line x1="0" y1="1326" x2="3840" y2="1326"/><line x1="0" y1="1404" x2="3840" y2="1404"/><line x1="0" y1="1482" x2="3840" y2="1482"/><line x1="0" y1="1560" x2="3840" y2="1560"/><line x1="0" y1="1638" x2="3840" y2="1638"/><line x1="0" y1="1716" x2="3840" y2="1716"/><line x1="0" y1="1794" x2="3840" y2="1794"/><line x1="0" y1="1872" x2="3840" y2="1872"/><line x1="0" y1="1950" x2="3840" y2="1950"/><line x1="0" y1="2028" x2="3840" y2="2028"/><line x1="0" y1="2106" x2="3840" y2="2106"/>
  </g>

  <!-- Tech layers -->
  <g stroke="#00b7ff" stroke-opacity="0.06" fill="none">
<polygon points="70.0,0.0 35.0,60.6 -35.0,60.6 -70.0,0.0 -35.0,-60.6 35.0,-60.6"/>
<polygon points="210.0,0.0 175.0,60.6 105.0,60.6 70.0,0.0 105.0,-60.6 175.0,-60.6"/>
<polygon points="350.0,0.0 315.0,60.6 245.0,60.6 210.0,0.0 245.0,-60.6 315.0,-60.6"/>
<polygon points="490.0,0.0 455.0,60.6 385.0,60.6 350.0,0.0 385.0,-60.6 455.0,-60.6"/>
<polygon points="630.0,0.0 595.0,60.6 525.0,60.6 490.0,0.0 525.0,-60.6 595.0,-60.6"/>
<polygon points="770.0,0.0 735.0,60.6 665.0,60.6 630.0,0.0 665.0,-60.6 735.0,-60.6"/>
<polygon points="910.0,0.0 875.0,60.6 805.0,60.6 770.0,0.0 805.0,-60.6 875.0,-60.6"/>
<polygon points="1050.0,0.0 1015.0,60.6 945.0,60.6 910.0,0.0 945.0,-60.6 1015.0,-60.6"/>
<polygon points="1190.0,0.0 1155.0,60.6 1085.0,60.6 1050.0,0.0 1085.0,-60.6 1155.0,-60.6"/>
<polygon points="1330.0,0.0 1295.0,60.6 1225.0,60.6 1190.0,0.0 1225.0,-60.6 1295.0,-60.6"/>
<polygon points="1470.0,0.0 1435.0,60.6 1365.0,60.6 1330.0,0.0 1365.0,-60.6 1435.0,-60.6"/>
<polygon points="1610.0,0.0 1575.0,60.6 1505.0,60.6 1470.0,0.0 1505.0,-60.6 1575.0,-60.6"/>
<polygon points="1750.0,0.0 1715.0,60.6 1645.0,60.6 1610.0,0.0 1645.0,-60.6 1715.0,-60.6"/>
<polygon points="1890.0,0.0 1855.0,60.6 1785.0,60.6 1750.0,0.0 1785.0,-60.6 1855.0,-60.6"/>
<polygon points="2030.0,0.0 1995.0,60.6 1925.0,60.6 1890.0,0.0 1925.0,-60.6 1995.0,-60.6"/>
<polygon points="2170.0,0.0 2135.0,60.6 2065.0,60.6 2030.0,0.0 2065.0,-60.6 2135.0,-60.6"/>
<polygon points="2310.0,0.0 2275.0,60.6 2205.0,60.6 2170.0,0.0 2205.0,-60.6 2275.0,-60.6"/>
<polygon points="2450.0,0.0 2415.0,60.6 2345.0,60.6 2310.0,0.0 2345.0,-60.6 2415.0,-60.6"/>
<polygon points="2590.0,0.0 2555.0,60.6 2485.0,60.6 2450.0,0.0 2485.0,-60.6 2555.0,-60.6"/>
<polygon points="2730.0,0.0 2695.0,60.6 2625.0,60.6 2590.0,0.0 2625.0,-60.6 2695.0,-60.6"/>
<polygon points="2870.0,0.0 2835.0,60.6 2765.0,60.6 2730.0,0.0 2765.0,-60.6 2835.0,-60.6"/>
<polygon points="3010.0,0.0 2975.0,60.6 2905.0,60.6 2870.0,0.0 2905.0,-60.6 2975.0,-60.6"/>
<polygon points="3150.0,0.0 3115.0,60.6 3045.0,60.6 3010.0,0.0 3045.0,-60.6 3115.0,-60.6"/>
<polygon points="3290.0,0.0 3255.0,60.6 3185.0,60.6 3150.0,0.0 3185.0,-60.6 3255.0,-60.6"/>
<polygon points="3430.0,0.0 3395.0,60.6 3325.0,60.6 3290.0,0.0 3325.0,-60.6 3395.0,-60.6"/>
<polygon points="3570.0,0.0 3535.0,60.6 3465.0,60.6 3430.0,0.0 3465.0,-60.6 3535.0,-60.6"/>
<polygon points="3710.0,0.0 3675.0,60.6 3605.0,60.6 3570.0,0.0 3605.0,-60.6 3675.0,-60.6"/>
<polygon points="3850.0,0.0 3815.0,60.6 3745.0,60.6 3710.0,0.0 3745.0,-60.6 3815.0,-60.6"/>
<polygon points="3990.0,0.0 3955.0,60.6 3885.0,60.6 3850.0,0.0 3885.0,-60.6 3955.0,-60.6"/>
<polygon points="4130.0,0.0 4095.0,60.6 4025.0,60.6 3990.0,0.0 4025.0,-60.6 4095.0,-60.6"/>
<polygon points="140.0,121.2 105.0,181.9 35.0,181.9 0.0,121.2 35.0,60.6 105.0,60.6"/>
<polygon points="280.0,121.2 245.0,181.9 175.0,181.9 140.0,121.2 175.0,60.6 245.0,60.6"/>
<polygon points="420.0,121.2 385.0,181.9 315.0,181.9 280.0,121.2 315.0,60.6 385.0,60.6"/>
<polygon points="560.0,121.2 525.0,181.9 455.0,181.9 420.0,121.2 455.0,60.6 525.0,60.6"/>
<polygon points="700.0,121.2 665.0,181.9 595.0,181.9 560.0,121.2 595.0,60.6 665.0,60.6"/>
<polygon points="840.0,121.2 805.0,181.9 735.0,181.9 700.0,121.2 735.0,60.6 805.0,60.6"/>
<polygon points="980.0,121.2 945.0,181.9 875.0,181.9 840.0,121.2 875.0,60.6 945.0,60.6"/>
<polygon points="1120.0,121.2 1085.0,181.9 1015.0,181.9 980.0,121.2 1015.0,60.6 1085.0,60.6"/>
<polygon points="1260.0,121.2 1225.0,181.9 1155.0,181.9 1120.0,121.2 1155.0,60.6 1225.0,60.6"/>
<polygon points="1400.0,121.2 1365.0,181.9 1295.0,181.9 1260.0,121.2 1295.0,60.6 1365.0,60.6"/>
<polygon points="1540.0,121.2 1505.0,181.9 1435.0,181.9 1400.0,121.2 1435.0,60.6 1505.0,60.6"/>
<polygon points="1680.0,121.2 1645.0,181.9 1575.0,181.9 1540.0,121.2 1575.0,60.6 1645.0,60.6"/>
<polygon points="1820.0,121.2 1785.0,181.9 1715.0,181.9 1680.0,121.2 1715.0,60.6 1785.0,60.6"/>
<polygon points="1960.0,121.2 1925.0,181.9 1855.0,181.9 1820.0,121.2 1855.0,60.6 1925.0,60.6"/>
<polygon points="2100.0,121.2 2065.0,181.9 1995.0,181.9 1960.0,121.2 1995.0,60.6 2065.0,60.6"/>
<polygon points="2240.0,121.2 2205.0,181.9 2135.0,181.9 2100.0,121.2 2135.0,60.6 2205.0,60.6"/>
<polygon points="2380.0,121.2 2345.0,181.9 2275.0,181.9 2240.0,121.2 2275.0,60.6 2345.0,60.6"/>
<polygon points="2520.0,121.2 2485.0,181.9 2415.0,181.9 2380.0,121.2 2415.0,60.6 2485.0,60.6"/>
<polygon points="2660.0,121.2 2625.0,181.9 2555.0,181.9 2520.0,121.2 2555.0,60.6 2625.0,60.6"/>
<polygon points="2800.0,121.2 2765.0,181.9 2695.0,181.9 2660.0,121.2 2695.0,60.6 2765.0,60.6"/>
<polygon points="2940.0,121.2 2905.0,181.9 2835.0,181.9 2800.0,121.2 2835.0,60.6 2905.0,60.6"/>
<polygon points="3080.0,121.2 3045.0,181.9 2975.0,181.9 2940.0,121.2 2975.0,60.6 3045.0,60.6"/>
<polygon points="3220.0,121.2 3185.0,181.9 3115.0,181.9 3080.0,121.2 3115.0,60.6 3185.0,60.6"/>
<polygon points="3360.0,121.2 3325.0,181.9 3255.0,181.9 3220.0,121.2 3255.0,60.6 3325.0,60.6"/>
<polygon points="3500.0,121.2 3465.0,181.9 3395.0,181.9 3360.0,121.2 3395.0,60.6 3465.0,60.6"/>
<polygon points="3640.0,121.2 3605.0,181.9 3535.0,181.9 3500.0,121.2 3535.0,60.6 3605.0,60.6"/>
<polygon points="3780.0,121.2 3745.0,181.9 3675.0,181.9 3640.0,121.2 3675.0,60.6 3745.0,60.6"/>
<polygon points="3920.0,121.2 3885.0,181.9 3815.0,181.9 3780.0,121.2 3815.0,60.6 3885.0,60.6"/>
<polygon points="4060.0,121.2 4025.0,181.9 3955.0,181.9 3920.0,121.2 3955.0,60.6 4025.0,60.6"/>
<polygon points="4200.0,121.2 4165.0,181.9 4095.0,181.9 4060.0,121.2 4095.0,60.6 4165.0,60.6"/>
<polygon points="70.0,242.5 35.0,303.1 -35.0,303.1 -70.0,242.5 -35.0,181.9 35.0,181.9"/>
<polygon points="210.0,242.5 175.0,303.1 105.0,303.1 70.0,242.5 105.0,181.9 175.0,181.9"/>
<polygon points="350.0,242.5 315.0,303.1 245.0,303.1 210.0,242.5 245.0,181.9 315.0,181.9"/>
<polygon points="490.0,242.5 455.0,303.1 385.0,303.1 350.0,242.5 385.0,181.9 455.0,181.9"/>
<polygon points="630.0,242.5 595.0,303.1 525.0,303.1 490.0,242.5 525.0,181.9 595.0,181.9"/>
<polygon points="770.0,242.5 735.0,303.1 665.0,303.1 630.0,242.5 665.0,181.9 735.0,181.9"/>
<polygon points="910.0,242.5 875.0,303.1 805.0,303.1 770.0,242.5 805.0,181.9 875.0,181.9"/>
<polygon points="1050.0,242.5 1015.0,303.1 945.0,303.1 910.0,242.5 945.0,181.9 1015.0,181.9"/>
<polygon points="1190.0,242.5 1155.0,303.1 1085.0,303.1 1050.0,242.5 1085.0,181.9 1155.0,181.9"/>
<polygon points="1330.0,242.5 1295.0,303.1 1225.0,303.1 1190.0,242.5 1225.0,181.9 1295.0,181.9"/>
<polygon points="1470.0,242.5 1435.0,303.1 1365.0,303.1 1330.0,242.5 1365.0,181.9 1435.0,181.9"/>
<polygon points="1610.0,242.5 1575.0,303.1 1505.0,303.1 1470.0,242.5 1505.0,181.9 1575.0,181.9"/>
<polygon points="1750.0,242.5 1715.0,303.1 1645.0,303.1 1610.0,242.5 1645.0,181.9 1715.0,181.9"/>
<polygon points="1890.0,242.5 1855.0,303.1 1785.0,303.1 1750.0,242.5 1785.0,181.9 1855.0,181.9"/>
<polygon points="2030.0,242.5 1995.0,303.1 1925.0,303.1 1890.0,242.5 1925.0,181.9 1995.0,181.9"/>
<polygon points="2170.0,242.5 2135.0,303.1 2065.0,303.1 2030.0,242.5 2065.0,181.9 2135.0,181.9"/>
<polygon points="2310.0,242.5 2275.0,303.1 2205.0,303.1 2170.0,242.5 2205.0,181.9 2275.0,181.9"/>
<polygon points="2450.0,242.5 2415.0,303.1 2345.0,303.1 2310.0,242.5 2345.0,181.9 2415.0,181.9"/>
<polygon points="2590.0,242.5 2555.0,303.1 2485.0,303.1 2450.0,242.5 2485.0,181.9 2555.0,181.9"/>
<polygon points="2730.0,242.5 2695.0,303.1 2625.0,303.1 2590.0,242.5 2625.0,181.9 2695.0,181.9"/>
<polygon points="2870.0,242.5 2835.0,303.1 2765.0,303.1 2730.0,242.5 2765.0,181.9 2835.0,181.9"/>
<polygon points="3010.0,242.5 2975.0,303.1 2905.0,303.1 2870.0,242.5 2905.0,181.9 2975.0,181.9"/>
<polygon points="3150.0,242.5 3115.0,303.1 3045.0,303.1 3010.0,242.5 3045.0,181.9 3115.0,181.9"/>
<polygon points="3290.0,242.5 3255.0,303.1 3185.0,303.1 3150.0,242.5 3185.0,181.9 3255.0,181.9"/>
<polygon points="3430.0,242.5 3395.0,303.1 3325.0,303.1 3290.0,242.5 3325.0,181.9 3395.0,181.9"/>
<polygon points="3570.0,242.5 3535.0,303.1 3465.0,303.1 3430.0,242.5 3465.0,181.9 3535.0,181.9"/>
<polygon points="3710.0,242.5 3675.0,303.1 3605.0,303.1 3570.0,242.5 3605.0,181.9 3675.0,181.9"/>
<polygon points="3850.0,242.5 3815.0,303.1 3745.0,303.1 3710.0,242.5 3745.0,181.9 3815.0,181.9"/>
<polygon points="3990.0,242.5 3955.0,303.1 3885.0,303.1 3850.0,242.5 3885.0,181.9 3955.0,181.9"/>
<polygon points="4130.0,242.5 4095.0,303.1 4025.0,303.1 3990.0,242.5 4025.0,181.9 4095.0,181.9"/>
<polygon points="140.0,363.7 105.0,424.4 35.0,424.4 0.0,363.7 35.0,303.1 105.0,303.1"/>
<polygon points="280.0,363.7 245.0,424.4 175.0,424.4 140.0,363.7 175.0,303.1 245.0,303.1"/>
<polygon points="420.0,363.7 385.0,424.4 315.0,424.4 280.0,363.7 315.0,303.1 385.0,303.1"/>
<polygon points="560.0,363.7 525.0,424.4 455.0,424.4 420.0,363.7 455.0,303.1 525.0,303.1"/>
<polygon points="700.0,363.7 665.0,424.4 595.0,424.4 560.0,363.7 595.0,303.1 665.0,303.1"/>
<polygon points="840.0,363.7 805.0,424.4 735.0,424.4 700.0,363.7 735.0,303.1 805.0,303.1"/>
<polygon points="980.0,363.7 945.0,424.4 875.0,424.4 840.0,363.7 875.0,303.1 945.0,303.1"/>
<polygon points="1120.0,363.7 1085.0,424.4 1015.0,424.4 980.0,363.7 1015.0,303.1 1085.0,303.1"/>
<polygon points="1260.0,363.7 1225.0,424.4 1155.0,424.4 1120.0,363.7 1155.0,303.1 1225.0,303.1"/>
<polygon points="1400.0,363.7 1365.0,424.4 1295.0,424.4 1260.0,363.7 1295.0,303.1 1365.0,303.1"/>
<polygon points="1540.0,363.7 1505.0,424.4 1435.0,424.4 1400.0,363.7 1435.0,303.1 1505.0,303.1"/>
<polygon points="1680.0,363.7 1645.0,424.4 1575.0,424.4 1540.0,363.7 1575.0,303.1 1645.0,303.1"/>
<polygon points="1820.0,363.7 1785.0,424.4 1715.0,424.4 1680.0,363.7 1715.0,303.1 1785.0,303.1"/>
<polygon points="1960.0,363.7 1925.0,424.4 1855.0,424.4 1820.0,363.7 1855.0,303.1 1925.0,303.1"/>
<polygon points="2100.0,363.7 2065.0,424.4 1995.0,424.4 1960.0,363.7 1995.0,303.1 2065.0,303.1"/>
<polygon points="2240.0,363.7 2205.0,424.4 2135.0,424.4 2100.0,363.7 2135.0,303.1 2205.0,303.1"/>
<polygon points="2380.0,363.7 2345.0,424.4 2275.0,424.4 2240.0,363.7 2275.0,303.1 2345.0,303.1"/>
<polygon points="2520.0,363.7 2485.0,424.4 2415.0,424.4 2380.0,363.7 2415.0,303.1 2485.0,303.1"/>
<polygon points="2660.0,363.7 2625.0,424.4 2555.0,424.4 2520.0,363.7 2555.0,303.1 2625.0,303.1"/>
<polygon points="2800.0,363.7 2765.0,424.4 2695.0,424.4 2660.0,363.7 2695.0,303.1 2765.0,303.1"/>
<polygon points="2940.0,363.7 2905.0,424.4 2835.0,424.4 2800.0,363.7 2835.0,303.1 2905.0,303.1"/>
<polygon points="3080.0,363.7 3045.0,424.4 2975.0,424.4 2940.0,363.7 2975.0,303.1 3045.0,303.1"/>
<polygon points="3220.0,363.7 3185.0,424.4 3115.0,424.4 3080.0,363.7 3115.0,303.1 3185.0,303.1"/>
<polygon points="3360.0,363.7 3325.0,424.4 3255.0,424.4 3220.0,363.7 3255.0,303.1 3325.0,303.1"/>
<polygon points="3500.0,363.7 3465.0,424.4 3395.0,424.4 3360.0,363.7 3395.0,303.1 3465.0,303.1"/>
<polygon points="3640.0,363.7 3605.0,424.4 3535.0,424.4 3500.0,363.7 3535.0,303.1 3605.0,303.1"/>
<polygon points="3780.0,363.7 3745.0,424.4 3675.0,424.4 3640.0,363.7 3675.0,303.1 3745.0,303.1"/>
<polygon points="3920.0,363.7 3885.0,424.4 3815.0,424.4 3780.0,363.7 3815.0,303.1 3885.0,303.1"/>
<polygon points="4060.0,363.7 4025.0,424.4 3955.0,424.4 3920.0,363.7 3955.0,303.1 4025.0,303.1"/>
<polygon points="4200.0,363.7 4165.0,424.4 4095.0,424.4 4060.0,363.7 4095.0,303.1 4165.0,303.1"/>
<polygon points="70.0,485.0 35.0,545.6 -35.0,545.6 -70.0,485.0 -35.0,424.4 35.0,424.4"/>
<polygon points="210.0,485.0 175.0,545.6 105.0,545.6 70.0,485.0 105.0,424.4 175.0,424.4"/>
<polygon points="350.0,485.0 315.0,545.6 245.0,545.6 210.0,485.0 245.0,424.4 315.0,424.4"/>
<polygon points="490.0,485.0 455.0,545.6 385.0,545.6 350.0,485.0 385.0,424.4 455.0,424.4"/>
<polygon points="630.0,485.0 595.0,545.6 525.0,545.6 490.0,485.0 525.0,424.4 595.0,424.4"/>
<polygon points="770.0,485.0 735.0,545.6 665.0,545.6 630.0,485.0 665.0,424.4 735.0,424.4"/>
<polygon points="910.0,485.0 875.0,545.6 805.0,545.6 770.0,485.0 805.0,424.4 875.0,424.4"/>
<polygon points="1050.0,485.0 1015.0,545.6 945.0,545.6 910.0,485.0 945.0,424.4 1015.0,424.4"/>
<polygon points="1190.0,485.0 1155.0,545.6 1085.0,545.6 1050.0,485.0 1085.0,424.4 1155.0,424.4"/>
<polygon points="1330.0,485.0 1295.0,545.6 1225.0,545.6 1190.0,485.0 1225.0,424.4 1295.0,424.4"/>
<polygon points="1470.0,485.0 1435.0,545.6 1365.0,545.6 1330.0,485.0 1365.0,424.4 1435.0,424.4"/>
<polygon points="1610.0,485.0 1575.0,545.6 1505.0,545.6 1470.0,485.0 1505.0,424.4 1575.0,424.4"/>
<polygon points="1750.0,485.0 1715.0,545.6 1645.0,545.6 1610.0,485.0 1645.0,424.4 1715.0,424.4"/>
<polygon points="1890.0,485.0 1855.0,545.6 1785.0,545.6 1750.0,485.0 1785.0,424.4 1855.0,424.4"/>
<polygon points="2030.0,485.0 1995.0,545.6 1925.0,545.6 1890.0,485.0 1925.0,424.4 1995.0,424.4"/>
<polygon points="2170.0,485.0 2135.0,545.6 2065.0,545.6 2030.0,485.0 2065.0,424.4 2135.0,424.4"/>
<polygon points="2310.0,485.0 2275.0,545.6 2205.0,545.6 2170.0,485.0 2205.0,424.4 2275.0,424.4"/>
<polygon points="2450.0,485.0 2415.0,545.6 2345.0,545.6 2310.0,485.0 2345.0,424.4 2415.0,424.4"/>
<polygon points="2590.0,485.0 2555.0,545.6 2485.0,545.6 2450.0,485.0 2485.0,424.4 2555.0,424.4"/>
<polygon points="2730.0,485.0 2695.0,545.6 2625.0,545.6 2590.0,485.0 2625.0,424.4 2695.0,424.4"/>
<polygon points="2870.0,485.0 2835.0,545.6 2765.0,545.6 2730.0,485.0 2765.0,424.4 2835.0,424.4"/>
<polygon points="3010.0,485.0 2975.0,545.6 2905.0,545.6 2870.0,485.0 2905.0,424.4 2975.0,424.4"/>
<polygon points="3150.0,485.0 3115.0,545.6 3045.0,545.6 3010.0,485.0 3045.0,424.4 3115.0,424.4"/>
<polygon points="3290.0,485.0 3255.0,545.6 3185.0,545.6 3150.0,485.0 3185.0,424.4 3255.0,424.4"/>
<polygon points="3430.0,485.0 3395.0,545.6 3325.0,545.6 3290.0,485.0 3325.0,424.4 3395.0,424.4"/>
<polygon points="3570.0,485.0 3535.0,545.6 3465.0,545.6 3430.0,485.0 3465.0,424.4 3535.0,424.4"/>
<polygon points="3710.0,485.0 3675.0,545.6 3605.0,545.6 3570.0,485.0 3605.0,424.4 3675.0,424.4"/>
<polygon points="3850.0,485.0 3815.0,545.6 3745.0,545.6 3710.0,485.0 3745.0,424.4 3815.0,424.4"/>
<polygon points="3990.0,485.0 3955.0,545.6 3885.0,545.6 3850.0,485.0 3885.0,424.4 3955.0,424.4"/>
<polygon points="4130.0,485.0 4095.0,545.6 4025.0,545.6 3990.0,485.0 4025.0,424.4 4095.0,424.4"/>
<polygon points="140.0,606.2 105.0,666.8 35.0,666.8 0.0,606.2 35.0,545.6 105.0,545.6"/>
<polygon points="280.0,606.2 245.0,666.8 175.0,666.8 140.0,606.2 175.0,545.6 245.0,545.6"/>
<polygon points="420.0,606.2 385.0,666.8 315.0,666.8 280.0,606.2 315.0,545.6 385.0,545.6"/>
<polygon points="560.0,606.2 525.0,666.8 455.0,666.8 420.0,606.2 455.0,545.6 525.0,545.6"/>
<polygon points="700.0,606.2 665.0,666.8 595.0,666.8 560.0,606.2 595.0,545.6 665.0,545.6"/>
<polygon points="840.0,606.2 805.0,666.8 735.0,666.8 700.0,606.2 735.0,545.6 805.0,545.6"/>
<polygon points="980.0,606.2 945.0,666.8 875.0,666.8 840.0,606.2 875.0,545.6 945.0,545.6"/>
<polygon points="1120.0,606.2 1085.0,666.8 1015.0,666.8 980.0,606.2 1015.0,545.6 1085.0,545.6"/>
<polygon points="1260.0,606.2 1225.0,666.8 1155.0,666.8 1120.0,606.2 1155.0,545.6 1225.0,545.6"/>
<polygon points="1400.0,606.2 1365.0,666.8 1295.0,666.8 1260.0,606.2 1295.0,545.6 1365.0,545.6"/>
<polygon points="1540.0,606.2 1505.0,666.8 1435.0,666.8 1400.0,606.2 1435.0,545.6 1505.0,545.6"/>
<polygon points="1680.0,606.2 1645.0,666.8 1575.0,666.8 1540.0,606.2 1575.0,545.6 1645.0,545.6"/>
<polygon points="1820.0,606.2 1785.0,666.8 1715.0,666.8 1680.0,606.2 1715.0,545.6 1785.0,545.6"/>
<polygon points="1960.0,606.2 1925.0,666.8 1855.0,666.8 1820.0,606.2 1855.0,545.6 1925.0,545.6"/>
<polygon points="2100.0,606.2 2065.0,666.8 1995.0,666.8 1960.0,606.2 1995.0,545.6 2065.0,545.6"/>
<polygon points="2240.0,606.2 2205.0,666.8 2135.0,666.8 2100.0,606.2 2135.0,545.6 2205.0,545.6"/>
<polygon points="2380.0,606.2 2345.0,666.8 2275.0,666.8 2240.0,606.2 2275.0,545.6 2345.0,545.6"/>
<polygon points="2520.0,606.2 2485.0,666.8 2415.0,666.8 2380.0,606.2 2415.0,545.6 2485.0,545.6"/>
<polygon points="2660.0,606.2 2625.0,666.8 2555.0,666.8 2520.0,606.2 2555.0,545.6 2625.0,545.6"/>
<polygon points="2800.0,606.2 2765.0,666.8 2695.0,666.8 2660.0,606.2 2695.0,545.6 2765.0,545.6"/>
<polygon points="2940.0,606.2 2905.0,666.8 2835.0,666.8 2800.0,606.2 2835.0,545.6 2905.0,545.6"/>
<polygon points="3080.0,606.2 3045.0,666.8 2975.0,666.8 2940.0,606.2 2975.0,545.6 3045.0,545.6"/>
<polygon points="3220.0,606.2 3185.0,666.8 3115.0,666.8 3080.0,606.2 3115.0,545.6 3185.0,545.6"/>
<polygon points="3360.0,606.2 3325.0,666.8 3255.0,666.8 3220.0,606.2 3255.0,545.6 3325.0,545.6"/>
<polygon points="3500.0,606.2 3465.0,666.8 3395.0,666.8 3360.0,606.2 3395.0,545.6 3465.0,545.6"/>
<polygon points="3640.0,606.2 3605.0,666.8 3535.0,666.8 3500.0,606.2 3535.0,545.6 3605.0,545.6"/>
<polygon points="3780.0,606.2 3745.0,666.8 3675.0,666.8 3640.0,606.2 3675.0,545.6 3745.0,545.6"/>
<polygon points="3920.0,606.2 3885.0,666.8 3815.0,666.8 3780.0,606.2 3815.0,545.6 3885.0,545.6"/>
<polygon points="4060.0,606.2 4025.0,666.8 3955.0,666.8 3920.0,606.2 3955.0,545.6 4025.0,545.6"/>
<polygon points="4200.0,606.2 4165.0,666.8 4095.0,666.8 4060.0,606.2 4095.0,545.6 4165.0,545.6"/>
<polygon points="70.0,727.5 35.0,788.1 -35.0,788.1 -70.0,727.5 -35.0,666.8 35.0,666.8"/>
<polygon points="210.0,727.5 175.0,788.1 105.0,788.1 70.0,727.5 105.0,666.8 175.0,666.8"/>
<polygon points="350.0,727.5 315.0,788.1 245.0,788.1 210.0,727.5 245.0,666.8 315.0,666.8"/>
<polygon points="490.0,727.5 455.0,788.1 385.0,788.1 350.0,727.5 385.0,666.8 455.0,666.8"/>
<polygon points="630.0,727.5 595.0,788.1 525.0,788.1 490.0,727.5 525.0,666.8 595.0,666.8"/>
<polygon points="770.0,727.5 735.0,788.1 665.0,788.1 630.0,727.5 665.0,666.8 735.0,666.8"/>
<polygon points="910.0,727.5 875.0,788.1 805.0,788.1 770.0,727.5 805.0,666.8 875.0,666.8"/>
<polygon points="1050.0,727.5 1015.0,788.1 945.0,788.1 910.0,727.5 945.0,666.8 1015.0,666.8"/>
<polygon points="1190.0,727.5 1155.0,788.1 1085.0,788.1 1050.0,727.5 1085.0,666.8 1155.0,666.8"/>
<polygon points="1330.0,727.5 1295.0,788.1 1225.0,788.1 1190.0,727.5 1225.0,666.8 1295.0,666.8"/>
<polygon points="1470.0,727.5 1435.0,788.1 1365.0,788.1 1330.0,727.5 1365.0,666.8 1435.0,666.8"/>
<polygon points="1610.0,727.5 1575.0,788.1 1505.0,788.1 1470.0,727.5 1505.0,666.8 1575.0,666.8"/>
<polygon points="1750.0,727.5 1715.0,788.1 1645.0,788.1 1610.0,727.5 1645.0,666.8 1715.0,666.8"/>
<polygon points="1890.0,727.5 1855.0,788.1 1785.0,788.1 1750.0,727.5 1785.0,666.8 1855.0,666.8"/>
<polygon points="2030.0,727.5 1995.0,788.1 1925.0,788.1 1890.0,727.5 1925.0,666.8 1995.0,666.8"/>
<polygon points="2170.0,727.5 2135.0,788.1 2065.0,788.1 2030.0,727.5 2065.0,666.8 2135.0,666.8"/>
<polygon points="2310.0,727.5 2275.0,788.1 2205.0,788.1 2170.0,727.5 2205.0,666.8 2275.0,666.8"/>
<polygon points="2450.0,727.5 2415.0,788.1 2345.0,788.1 2310.0,727.5 2345.0,666.8 2415.0,666.8"/>
<polygon points="2590.0,727.5 2555.0,788.1 2485.0,788.1 2450.0,727.5 2485.0,666.8 2555.0,666.8"/>
<polygon points="2730.0,727.5 2695.0,788.1 2625.0,788.1 2590.0,727.5 2625.0,666.8 2695.0,666.8"/>
<polygon points="2870.0,727.5 2835.0,788.1 2765.0,788.1 2730.0,727.5 2765.0,666.8 2835.0,666.8"/>
<polygon points="3010.0,727.5 2975.0,788.1 2905.0,788.1 2870.0,727.5 2905.0,666.8 2975.0,666.8"/>
<polygon points="3150.0,727.5 3115.0,788.1 3045.0,788.1 3010.0,727.5 3045.0,666.8 3115.0,666.8"/>
<polygon points="3290.0,727.5 3255.0,788.1 3185.0,788.1 3150.0,727.5 3185.0,666.8 3255.0,666.8"/>
<polygon points="3430.0,727.5 3395.0,788.1 3325.0,788.1 3290.0,727.5 3325.0,666.8 3395.0,666.8"/>
<polygon points="3570.0,727.5 3535.0,788.1 3465.0,788.1 3430.0,727.5 3465.0,666.8 3535.0,666.8"/>
<polygon points="3710.0,727.5 3675.0,788.1 3605.0,788.1 3570.0,727.5 3605.0,666.8 3675.0,666.8"/>
<polygon points="3850.0,727.5 3815.0,788.1 3745.0,788.1 3710.0,727.5 3745.0,666.8 3815.0,666.8"/>
<polygon points="3990.0,727.5 3955.0,788.1 3885.0,788.1 3850.0,727.5 3885.0,666.8 3955.0,666.8"/>
<polygon points="4130.0,727.5 4095.0,788.1 4025.0,788.1 3990.0,727.5 4025.0,666.8 4095.0,666.8"/>
<polygon points="140.0,848.7 105.0,909.3 35.0,909.3 0.0,848.7 35.0,788.1 105.0,788.1"/>
<polygon points="280.0,848.7 245.0,909.3 175.0,909.3 140.0,848.7 175.0,788.1 245.0,788.1"/>
<polygon points="420.0,848.7 385.0,909.3 315.0,909.3 280.0,848.7 315.0,788.1 385.0,788.1"/>
<polygon points="560.0,848.7 525.0,909.3 455.0,909.3 420.0,848.7 455.0,788.1 525.0,788.1"/>
<polygon points="700.0,848.7 665.0,909.3 595.0,909.3 560.0,848.7 595.0,788.1 665.0,788.1"/>
<polygon points="840.0,848.7 805.0,909.3 735.0,909.3 700.0,848.7 735.0,788.1 805.0,788.1"/>
<polygon points="980.0,848.7 945.0,909.3 875.0,909.3 840.0,848.7 875.0,788.1 945.0,788.1"/>
<polygon points="1120.0,848.7 1085.0,909.3 1015.0,909.3 980.0,848.7 1015.0,788.1 1085.0,788.1"/>
<polygon points="1260.0,848.7 1225.0,909.3 1155.0,909.3 1120.0,848.7 1155.0,788.1 1225.0,788.1"/>
<polygon points="1400.0,848.7 1365.0,909.3 1295.0,909.3 1260.0,848.7 1295.0,788.1 1365.0,788.1"/>
<polygon points="1540.0,848.7 1505.0,909.3 1435.0,909.3 1400.0,848.7 1435.0,788.1 1505.0,788.1"/>
<polygon points="1680.0,848.7 1645.0,909.3 1575.0,909.3 1540.0,848.7 1575.0,788.1 1645.0,788.1"/>
<polygon points="1820.0,848.7 1785.0,909.3 1715.0,909.3 1680.0,848.7 1715.0,788.1 1785.0,788.1"/>
<polygon points="1960.0,848.7 1925.0,909.3 1855.0,909.3 1820.0,848.7 1855.0,788.1 1925.0,788.1"/>
<polygon points="2100.0,848.7 2065.0,909.3 1995.0,909.3 1960.0,848.7 1995.0,788.1 2065.0,788.1"/>
<polygon points="2240.0,848.7 2205.0,909.3 2135.0,909.3 2100.0,848.7 2135.0,788.1 2205.0,788.1"/>
<polygon points="2380.0,848.7 2345.0,909.3 2275.0,909.3 2240.0,848.7 2275.0,788.1 2345.0,788.1"/>
<polygon points="2520.0,848.7 2485.0,909.3 2415.0,909.3 2380.0,848.7 2415.0,788.1 2485.0,788.1"/>
<polygon points="2660.0,848.7 2625.0,909.3 2555.0,909.3 2520.0,848.7 2555.0,788.1 2625.0,788.1"/>
<polygon points="2800.0,848.7 2765.0,909.3 2695.0,909.3 2660.0,848.7 2695.0,788.1 2765.0,788.1"/>
<polygon points="2940.0,848.7 2905.0,909.3 2835.0,909.3 2800.0,848.7 2835.0,788.1 2905.0,788.1"/>
<polygon points="3080.0,848.7 3045.0,909.3 2975.0,909.3 2940.0,848.7 2975.0,788.1 3045.0,788.1"/>
<polygon points="3220.0,848.7 3185.0,909.3 3115.0,909.3 3080.0,848.7 3115.0,788.1 3185.0,788.1"/>
<polygon points="3360.0,848.7 3325.0,909.3 3255.0,909.3 3220.0,848.7 3255.0,788.1 3325.0,788.1"/>
<polygon points="3500.0,848.7 3465.0,909.3 3395.0,909.3 3360.0,848.7 3395.0,788.1 3465.0,788.1"/>
<polygon points="3640.0,848.7 3605.0,909.3 3535.0,909.3 3500.0,848.7 3535.0,788.1 3605.0,788.1"/>
<polygon points="3780.0,848.7 3745.0,909.3 3675.0,909.3 3640.0,848.7 3675.0,788.1 3745.0,788.1"/>
<polygon points="3920.0,848.7 3885.0,909.3 3815.0,909.3 3780.0,848.7 3815.0,788.1 3885.0,788.1"/>
<polygon points="4060.0,848.7 4025.0,909.3 3955.0,909.3 3920.0,848.7 3955.0,788.1 4025.0,788.1"/>
<polygon points="4200.0,848.7 4165.0,909.3 4095.0,909.3 4060.0,848.7 4095.0,788.1 4165.0,788.1"/>
<polygon points="70.0,969.9 35.0,1030.6 -35.0,1030.6 -70.0,969.9 -35.0,909.3 35.0,909.3"/>
<polygon points="210.0,969.9 175.0,1030.6 105.0,1030.6 70.0,969.9 105.0,909.3 175.0,909.3"/>
<polygon points="350.0,969.9 315.0,1030.6 245.0,1030.6 210.0,969.9 245.0,909.3 315.0,909.3"/>
<polygon points="490.0,969.9 455.0,1030.6 385.0,1030.6 350.0,969.9 385.0,909.3 455.0,909.3"/>
<polygon points="630.0,969.9 595.0,1030.6 525.0,1030.6 490.0,969.9 525.0,909.3 595.0,909.3"/>
<polygon points="770.0,969.9 735.0,1030.6 665.0,1030.6 630.0,969.9 665.0,909.3 735.0,909.3"/>
<polygon points="910.0,969.9 875.0,1030.6 805.0,1030.6 770.0,969.9 805.0,909.3 875.0,909.3"/>
<polygon points="1050.0,969.9 1015.0,1030.6 945.0,1030.6 910.0,969.9 945.0,909.3 1015.0,909.3"/>
<polygon points="1190.0,969.9 1155.0,1030.6 1085.0,1030.6 1050.0,969.9 1085.0,909.3 1155.0,909.3"/>
<polygon points="1330.0,969.9 1295.0,1030.6 1225.0,1030.6 1190.0,969.9 1225.0,909.3 1295.0,909.3"/>
<polygon points="1470.0,969.9 1435.0,1030.6 1365.0,1030.6 1330.0,969.9 1365.0,909.3 1435.0,909.3"/>
<polygon points="1610.0,969.9 1575.0,1030.6 1505.0,1030.6 1470.0,969.9 1505.0,909.3 1575.0,909.3"/>
<polygon points="1750.0,969.9 1715.0,1030.6 1645.0,1030.6 1610.0,969.9 1645.0,909.3 1715.0,909.3"/>
<polygon points="1890.0,969.9 1855.0,1030.6 1785.0,1030.6 1750.0,969.9 1785.0,909.3 1855.0,909.3"/>
<polygon points="2030.0,969.9 1995.0,1030.6 1925.0,1030.6 1890.0,969.9 1925.0,909.3 1995.0,909.3"/>
<polygon points="2170.0,969.9 2135.0,1030.6 2065.0,1030.6 2030.0,969.9 2065.0,909.3 2135.0,909.3"/>
<polygon points="2310.0,969.9 2275.0,1030.6 2205.0,1030.6 2170.0,969.9 2205.0,909.3 2275.0,909.3"/>
<polygon points="2450.0,969.9 2415.0,1030.6 2345.0,1030.6 2310.0,969.9 2345.0,909.3 2415.0,909.3"/>
<polygon points="2590.0,969.9 2555.0,1030.6 2485.0,1030.6 2450.0,969.9 2485.0,909.3 2555.0,909.3"/>
<polygon points="2730.0,969.9 2695.0,1030.6 2625.0,1030.6 2590.0,969.9 2625.0,909.3 2695.0,909.3"/>
<polygon points="2870.0,969.9 2835.0,1030.6 2765.0,1030.6 2730.0,969.9 2765.0,909.3 2835.0,909.3"/>
<polygon points="3010.0,969.9 2975.0,1030.6 2905.0,1030.6 2870.0,969.9 2905.0,909.3 2975.0,909.3"/>
<polygon points="3150.0,969.9 3115.0,1030.6 3045.0,1030.6 3010.0,969.9 3045.0,909.3 3115.0,909.3"/>
<polygon points="3290.0,969.9 3255.0,1030.6 3185.0,1030.6 3150.0,969.9 3185.0,909.3 3255.0,909.3"/>
<polygon points="3430.0,969.9 3395.0,1030.6 3325.0,1030.6 3290.0,969.9 3325.0,909.3 3395.0,909.3"/>
<polygon points="3570.0,969.9 3535.0,1030.6 3465.0,1030.6 3430.0,969.9 3465.0,909.3 3535.0,909.3"/>
<polygon points="3710.0,969.9 3675.0,1030.6 3605.0,1030.6 3570.0,969.9 3605.0,909.3 3675.0,909.3"/>
<polygon points="3850.0,969.9 3815.0,1030.6 3745.0,1030.6 3710.0,969.9 3745.0,909.3 3815.0,909.3"/>
<polygon points="3990.0,969.9 3955.0,1030.6 3885.0,1030.6 3850.0,969.9 3885.0,909.3 3955.0,909.3"/>
<polygon points="4130.0,969.9 4095.0,1030.6 4025.0,1030.6 3990.0,969.9 4025.0,909.3 4095.0,909.3"/>
<polygon points="140.0,1091.2 105.0,1151.8 35.0,1151.8 0.0,1091.2 35.0,1030.6 105.0,1030.6"/>
<polygon points="280.0,1091.2 245.0,1151.8 175.0,1151.8 140.0,1091.2 175.0,1030.6 245.0,1030.6"/>
<polygon points="420.0,1091.2 385.0,1151.8 315.0,1151.8 280.0,1091.2 315.0,1030.6 385.0,1030.6"/>
<polygon points="560.0,1091.2 525.0,1151.8 455.0,1151.8 420.0,1091.2 455.0,1030.6 525.0,1030.6"/>
<polygon points="700.0,1091.2 665.0,1151.8 595.0,1151.8 560.0,1091.2 595.0,1030.6 665.0,1030.6"/>
<polygon points="840.0,1091.2 805.0,1151.8 735.0,1151.8 700.0,1091.2 735.0,1030.6 805.0,1030.6"/>
<polygon points="980.0,1091.2 945.0,1151.8 875.0,1151.8 840.0,1091.2 875.0,1030.6 945.0,1030.6"/>
<polygon points="1120.0,1091.2 1085.0,1151.8 1015.0,1151.8 980.0,1091.2 1015.0,1030.6 1085.0,1030.6"/>
<polygon points="1260.0,1091.2 1225.0,1151.8 1155.0,1151.8 1120.0,1091.2 1155.0,1030.6 1225.0,1030.6"/>
<polygon points="1400.0,1091.2 1365.0,1151.8 1295.0,1151.8 1260.0,1091.2 1295.0,1030.6 1365.0,1030.6"/>
<polygon points="1540.0,1091.2 1505.0,1151.8 1435.0,1151.8 1400.0,1091.2 1435.0,1030.6 1505.0,1030.6"/>
<polygon points="1680.0,1091.2 1645.0,1151.8 1575.0,1151.8 1540.0,1091.2 1575.0,1030.6 1645.0,1030.6"/>
<polygon points="1820.0,1091.2 1785.0,1151.8 1715.0,1151.8 1680.0,1091.2 1715.0,1030.6 1785.0,1030.6"/>
<polygon points="1960.0,1091.2 1925.0,1151.8 1855.0,1151.8 1820.0,1091.2 1855.0,1030.6 1925.0,1030.6"/>
<polygon points="2100.0,1091.2 2065.0,1151.8 1995.0,1151.8 1960.0,1091.2 1995.0,1030.6 2065.0,1030.6"/>
<polygon points="2240.0,1091.2 2205.0,1151.8 2135.0,1151.8 2100.0,1091.2 2135.0,1030.6 2205.0,1030.6"/>
<polygon points="2380.0,1091.2 2345.0,1151.8 2275.0,1151.8 2240.0,1091.2 2275.0,1030.6 2345.0,1030.6"/>
<polygon points="2520.0,1091.2 2485.0,1151.8 2415.0,1151.8 2380.0,1091.2 2415.0,1030.6 2485.0,1030.6"/>
<polygon points="2660.0,1091.2 2625.0,1151.8 2555.0,1151.8 2520.0,1091.2 2555.0,1030.6 2625.0,1030.6"/>
<polygon points="2800.0,1091.2 2765.0,1151.8 2695.0,1151.8 2660.0,1091.2 2695.0,1030.6 2765.0,1030.6"/>
<polygon points="2940.0,1091.2 2905.0,1151.8 2835.0,1151.8 2800.0,1091.2 2835.0,1030.6 2905.0,1030.6"/>
<polygon points="3080.0,1091.2 3045.0,1151.8 2975.0,1151.8 2940.0,1091.2 2975.0,1030.6 3045.0,1030.6"/>
<polygon points="3220.0,1091.2 3185.0,1151.8 3115.0,1151.8 3080.0,1091.2 3115.0,1030.6 3185.0,1030.6"/>
<polygon points="3360.0,1091.2 3325.0,1151.8 3255.0,1151.8 3220.0,1091.2 3255.0,1030.6 3325.0,1030.6"/>
<polygon points="3500.0,1091.2 3465.0,1151.8 3395.0,1151.8 3360.0,1091.2 3395.0,1030.6 3465.0,1030.6"/>
<polygon points="3640.0,1091.2 3605.0,1151.8 3535.0,1151.8 3500.0,1091.2 3535.0,1030.6 3605.0,1030.6"/>
<polygon points="3780.0,1091.2 3745.0,1151.8 3675.0,1151.8 3640.0,1091.2 3675.0,1030.6 3745.0,1030.6"/>
<polygon points="3920.0,1091.2 3885.0,1151.8 3815.0,1151.8 3780.0,1091.2 3815.0,1030.6 3885.0,1030.6"/>
<polygon points="4060.0,1091.2 4025.0,1151.8 3955.0,1151.8 3920.0,1091.2 3955.0,1030.6 4025.0,1030.6"/>
<polygon points="4200.0,1091.2 4165.0,1151.8 4095.0,1151.8 4060.0,1091.2 4095.0,1030.6 4165.0,1030.6"/>
<polygon points="70.0,1212.4 35.0,1273.1 -35.0,1273.1 -70.0,1212.4 -35.0,1151.8 35.0,1151.8"/>
<polygon points="210.0,1212.4 175.0,1273.1 105.0,1273.1 70.0,1212.4 105.0,1151.8 175.0,1151.8"/>
<polygon points="350.0,1212.4 315.0,1273.1 245.0,1273.1 210.0,1212.4 245.0,1151.8 315.0,1151.8"/>
<polygon points="490.0,1212.4 455.0,1273.1 385.0,1273.1 350.0,1212.4 385.0,1151.8 455.0,1151.8"/>
<polygon points="630.0,1212.4 595.0,1273.1 525.0,1273.1 490.0,1212.4 525.0,1151.8 595.0,1151.8"/>
<polygon points="770.0,1212.4 735.0,1273.1 665.0,1273.1 630.0,1212.4 665.0,1151.8 735.0,1151.8"/>
<polygon points="910.0,1212.4 875.0,1273.1 805.0,1273.1 770.0,1212.4 805.0,1151.8 875.0,1151.8"/>
<polygon points="1050.0,1212.4 1015.0,1273.1 945.0,1273.1 910.0,1212.4 945.0,1151.8 1015.0,1151.8"/>
<polygon points="1190.0,1212.4 1155.0,1273.1 1085.0,1273.1 1050.0,1212.4 1085.0,1151.8 1155.0,1151.8"/>
<polygon points="1330.0,1212.4 1295.0,1273.1 1225.0,1273.1 1190.0,1212.4 1225.0,1151.8 1295.0,1151.8"/>
<polygon points="1470.0,1212.4 1435.0,1273.1 1365.0,1273.1 1330.0,1212.4 1365.0,1151.8 1435.0,1151.8"/>
<polygon points="1610.0,1212.4 1575.0,1273.1 1505.0,1273.1 1470.0,1212.4 1505.0,1151.8 1575.0,1151.8"/>
<polygon points="1750.0,1212.4 1715.0,1273.1 1645.0,1273.1 1610.0,1212.4 1645.0,1151.8 1715.0,1151.8"/>
<polygon points="1890.0,1212.4 1855.0,1273.1 1785.0,1273.1 1750.0,1212.4 1785.0,1151.8 1855.0,1151.8"/>
<polygon points="2030.0,1212.4 1995.0,1273.1 1925.0,1273.1 1890.0,1212.4 1925.0,1151.8 1995.0,1151.8"/>
<polygon points="2170.0,1212.4 2135.0,1273.1 2065.0,1273.1 2030.0,1212.4 2065.0,1151.8 2135.0,1151.8"/>
<polygon points="2310.0,1212.4 2275.0,1273.1 2205.0,1273.1 2170.0,1212.4 2205.0,1151.8 2275.0,1151.8"/>
<polygon points="2450.0,1212.4 2415.0,1273.1 2345.0,1273.1 2310.0,1212.4 2345.0,1151.8 2415.0,1151.8"/>
<polygon points="2590.0,1212.4 2555.0,1273.1 2485.0,1273.1 2450.0,1212.4 2485.0,1151.8 2555.0,1151.8"/>
<polygon points="2730.0,1212.4 2695.0,1273.1 2625.0,1273.1 2590.0,1212.4 2625.0,1151.8 2695.0,1151.8"/>
<polygon points="2870.0,1212.4 2835.0,1273.1 2765.0,1273.1 2730.0,1212.4 2765.0,1151.8 2835.0,1151.8"/>
<polygon points="3010.0,1212.4 2975.0,1273.1 2905.0,1273.1 2870.0,1212.4 2905.0,1151.8 2975.0,1151.8"/>
<polygon points="3150.0,1212.4 3115.0,1273.1 3045.0,1273.1 3010.0,1212.4 3045.0,1151.8 3115.0,1151.8"/>
<polygon points="3290.0,1212.4 3255.0,1273.1 3185.0,1273.1 3150.0,1212.4 3185.0,1151.8 3255.0,1151.8"/>
<polygon points="3430.0,1212.4 3395.0,1273.1 3325.0,1273.1 3290.0,1212.4 3325.0,1151.8 3395.0,1151.8"/>
<polygon points="3570.0,1212.4 3535.0,1273.1 3465.0,1273.1 3430.0,1212.4 3465.0,1151.8 3535.0,1151.8"/>
<polygon points="3710.0,1212.4 3675.0,1273.1 3605.0,1273.1 3570.0,1212.4 3605.0,1151.8 3675.0,1151.8"/>
<polygon points="3850.0,1212.4 3815.0,1273.1 3745.0,1273.1 3710.0,1212.4 3745.0,1151.8 3815.0,1151.8"/>
<polygon points="3990.0,1212.4 3955.0,1273.1 3885.0,1273.1 3850.0,1212.4 3885.0,1151.8 3955.0,1151.8"/>
<polygon points="4130.0,1212.4 4095.0,1273.1 4025.0,1273.1 3990.0,1212.4 4025.0,1151.8 4095.0,1151.8"/>
<polygon points="140.0,1333.7 105.0,1394.3 35.0,1394.3 0.0,1333.7 35.0,1273.1 105.0,1273.1"/>
<polygon points="280.0,1333.7 245.0,1394.3 175.0,1394.3 140.0,1333.7 175.0,1273.1 245.0,1273.1"/>
<polygon points="420.0,1333.7 385.0,1394.3 315.0,1394.3 280.0,1333.7 315.0,1273.1 385.0,1273.1"/>
<polygon points="560.0,1333.7 525.0,1394.3 455.0,1394.3 420.0,1333.7 455.0,1273.1 525.0,1273.1"/>
<polygon points="700.0,1333.7 665.0,1394.3 595.0,1394.3 560.0,1333.7 595.0,1273.1 665.0,1273.1"/>
<polygon points="840.0,1333.7 805.0,1394.3 735.0,1394.3 700.0,1333.7 735.0,1273.1 805.0,1273.1"/>
<polygon points="980.0,1333.7 945.0,1394.3 875.0,1394.3 840.0,1333.7 875.0,1273.1 945.0,1273.1"/>
<polygon points="1120.0,1333.7 1085.0,1394.3 1015.0,1394.3 980.0,1333.7 1015.0,1273.1 1085.0,1273.1"/>
<polygon points="1260.0,1333.7 1225.0,1394.3 1155.0,1394.3 1120.0,1333.7 1155.0,1273.1 1225.0,1273.1"/>
<polygon points="1400.0,1333.7 1365.0,1394.3 1295.0,1394.3 1260.0,1333.7 1295.0,1273.1 1365.0,1273.1"/>
<polygon points="1540.0,1333.7 1505.0,1394.3 1435.0,1394.3 1400.0,1333.7 1435.0,1273.1 1505.0,1273.1"/>
<polygon points="1680.0,1333.7 1645.0,1394.3 1575.0,1394.3 1540.0,1333.7 1575.0,1273.1 1645.0,1273.1"/>
<polygon points="1820.0,1333.7 1785.0,1394.3 1715.0,1394.3 1680.0,1333.7 1715.0,1273.1 1785.0,1273.1"/>
<polygon points="1960.0,1333.7 1925.0,1394.3 1855.0,1394.3 1820.0,1333.7 1855.0,1273.1 1925.0,1273.1"/>
<polygon points="2100.0,1333.7 2065.0,1394.3 1995.0,1394.3 1960.0,1333.7 1995.0,1273.1 2065.0,1273.1"/>
<polygon points="2240.0,1333.7 2205.0,1394.3 2135.0,1394.3 2100.0,1333.7 2135.0,1273.1 2205.0,1273.1"/>
<polygon points="2380.0,1333.7 2345.0,1394.3 2275.0,1394.3 2240.0,1333.7 2275.0,1273.1 2345.0,1273.1"/>
<polygon points="2520.0,1333.7 2485.0,1394.3 2415.0,1394.3 2380.0,1333.7 2415.0,1273.1 2485.0,1273.1"/>
<polygon points="2660.0,1333.7 2625.0,1394.3 2555.0,1394.3 2520.0,1333.7 2555.0,1273.1 2625.0,1273.1"/>
<polygon points="2800.0,1333.7 2765.0,1394.3 2695.0,1394.3 2660.0,1333.7 2695.0,1273.1 2765.0,1273.1"/>
<polygon points="2940.0,1333.7 2905.0,1394.3 2835.0,1394.3 2800.0,1333.7 2835.0,1273.1 2905.0,1273.1"/>
<polygon points="3080.0,1333.7 3045.0,1394.3 2975.0,1394.3 2940.0,1333.7 2975.0,1273.1 3045.0,1273.1"/>
<polygon points="3220.0,1333.7 3185.0,1394.3 3115.0,1394.3 3080.0,1333.7 3115.0,1273.1 3185.0,1273.1"/>
<polygon points="3360.0,1333.7 3325.0,1394.3 3255.0,1394.3 3220.0,1333.7 3255.0,1273.1 3325.0,1273.1"/>
<polygon points="3500.0,1333.7 3465.0,1394.3 3395.0,1394.3 3360.0,1333.7 3395.0,1273.1 3465.0,1273.1"/>
<polygon points="3640.0,1333.7 3605.0,1394.3 3535.0,1394.3 3500.0,1333.7 3535.0,1273.1 3605.0,1273.1"/>
<polygon points="3780.0,1333.7 3745.0,1394.3 3675.0,1394.3 3640.0,1333.7 3675.0,1273.1 3745.0,1273.1"/>
<polygon points="3920.0,1333.7 3885.0,1394.3 3815.0,1394.3 3780.0,1333.7 3815.0,1273.1 3885.0,1273.1"/>
<polygon points="4060.0,1333.7 4025.0,1394.3 3955.0,1394.3 3920.0,1333.7 3955.0,1273.1 4025.0,1273.1"/>
<polygon points="4200.0,1333.7 4165.0,1394.3 4095.0,1394.3 4060.0,1333.7 4095.0,1273.1 4165.0,1273.1"/>
<polygon points="70.0,1454.9 35.0,1515.5 -35.0,1515.5 -70.0,1454.9 -35.0,1394.3 35.0,1394.3"/>
<polygon points="210.0,1454.9 175.0,1515.5 105.0,1515.5 70.0,1454.9 105.0,1394.3 175.0,1394.3"/>
<polygon points="350.0,1454.9 315.0,1515.5 245.0,1515.5 210.0,1454.9 245.0,1394.3 315.0,1394.3"/>
<polygon points="490.0,1454.9 455.0,1515.5 385.0,1515.5 350.0,1454.9 385.0,1394.3 455.0,1394.3"/>
<polygon points="630.0,1454.9 595.0,1515.5 525.0,1515.5 490.0,1454.9 525.0,1394.3 595.0,1394.3"/>
<polygon points="770.0,1454.9 735.0,1515.5 665.0,1515.5 630.0,1454.9 665.0,1394.3 735.0,1394.3"/>
<polygon points="910.0,1454.9 875.0,1515.5 805.0,1515.5 770.0,1454.9 805.0,1394.3 875.0,1394.3"/>
<polygon points="1050.0,1454.9 1015.0,1515.5 945.0,1515.5 910.0,1454.9 945.0,1394.3 1015.0,1394.3"/>
<polygon points="1190.0,1454.9 1155.0,1515.5 1085.0,1515.5 1050.0,1454.9 1085.0,1394.3 1155.0,1394.3"/>
<polygon points="1330.0,1454.9 1295.0,1515.5 1225.0,1515.5 1190.0,1454.9 1225.0,1394.3 1295.0,1394.3"/>
<polygon points="1470.0,1454.9 1435.0,1515.5 1365.0,1515.5 1330.0,1454.9 1365.0,1394.3 1435.0,1394.3"/>
<polygon points="1610.0,1454.9 1575.0,1515.5 1505.0,1515.5 1470.0,1454.9 1505.0,1394.3 1575.0,1394.3"/>
<polygon points="1750.0,1454.9 1715.0,1515.5 1645.0,1515.5 1610.0,1454.9 1645.0,1394.3 1715.0,1394.3"/>
<polygon points="1890.0,1454.9 1855.0,1515.5 1785.0,1515.5 1750.0,1454.9 1785.0,1394.3 1855.0,1394.3"/>
<polygon points="2030.0,1454.9 1995.0,1515.5 1925.0,1515.5 1890.0,1454.9 1925.0,1394.3 1995.0,1394.3"/>
<polygon points="2170.0,1454.9 2135.0,1515.5 2065.0,1515.5 2030.0,1454.9 2065.0,1394.3 2135.0,1394.3"/>
<polygon points="2310.0,1454.9 2275.0,1515.5 2205.0,1515.5 2170.0,1454.9 2205.0,1394.3 2275.0,1394.3"/>
<polygon points="2450.0,1454.9 2415.0,1515.5 2345.0,1515.5 2310.0,1454.9 2345.0,1394.3 2415.0,1394.3"/>
<polygon points="2590.0,1454.9 2555.0,1515.5 2485.0,1515.5 2450.0,1454.9 2485.0,1394.3 2555.0,1394.3"/>
<polygon points="2730.0,1454.9 2695.0,1515.5 2625.0,1515.5 2590.0,1454.9 2625.0,1394.3 2695.0,1394.3"/>
<polygon points="2870.0,1454.9 2835.0,1515.5 2765.0,1515.5 2730.0,1454.9 2765.0,1394.3 2835.0,1394.3"/>
<polygon points="3010.0,1454.9 2975.0,1515.5 2905.0,1515.5 2870.0,1454.9 2905.0,1394.3 2975.0,1394.3"/>
<polygon points="3150.0,1454.9 3115.0,1515.5 3045.0,1515.5 3010.0,1454.9 3045.0,1394.3 3115.0,1394.3"/>
<polygon points="3290.0,1454.9 3255.0,1515.5 3185.0,1515.5 3150.0,1454.9 3185.0,1394.3 3255.0,1394.3"/>
<polygon points="3430.0,1454.9 3395.0,1515.5 3325.0,1515.5 3290.0,1454.9 3325.0,1394.3 3395.0,1394.3"/>
<polygon points="3570.0,1454.9 3535.0,1515.5 3465.0,1515.5 3430.0,1454.9 3465.0,1394.3 3535.0,1394.3"/>
<polygon points="3710.0,1454.9 3675.0,1515.5 3605.0,1515.5 3570.0,1454.9 3605.0,1394.3 3675.0,1394.3"/>
<polygon points="3850.0,1454.9 3815.0,1515.5 3745.0,1515.5 3710.0,1454.9 3745.0,1394.3 3815.0,1394.3"/>
<polygon points="3990.0,1454.9 3955.0,1515.5 3885.0,1515.5 3850.0,1454.9 3885.0,1394.3 3955.0,1394.3"/>
<polygon points="4130.0,1454.9 4095.0,1515.5 4025.0,1515.5 3990.0,1454.9 4025.0,1394.3 4095.0,1394.3"/>
<polygon points="140.0,1576.2 105.0,1636.8 35.0,1636.8 0.0,1576.2 35.0,1515.5 105.0,1515.5"/>
<polygon points="280.0,1576.2 245.0,1636.8 175.0,1636.8 140.0,1576.2 175.0,1515.5 245.0,1515.5"/>
<polygon points="420.0,1576.2 385.0,1636.8 315.0,1636.8 280.0,1576.2 315.0,1515.5 385.0,1515.5"/>
<polygon points="560.0,1576.2 525.0,1636.8 455.0,1636.8 420.0,1576.2 455.0,1515.5 525.0,1515.5"/>
<polygon points="700.0,1576.2 665.0,1636.8 595.0,1636.8 560.0,1576.2 595.0,1515.5 665.0,1515.5"/>
<polygon points="840.0,1576.2 805.0,1636.8 735.0,1636.8 700.0,1576.2 735.0,1515.5 805.0,1515.5"/>
<polygon points="980.0,1576.2 945.0,1636.8 875.0,1636.8 840.0,1576.2 875.0,1515.5 945.0,1515.5"/>
<polygon points="1120.0,1576.2 1085.0,1636.8 1015.0,1636.8 980.0,1576.2 1015.0,1515.5 1085.0,1515.5"/>
<polygon points="1260.0,1576.2 1225.0,1636.8 1155.0,1636.8 1120.0,1576.2 1155.0,1515.5 1225.0,1515.5"/>
<polygon points="1400.0,1576.2 1365.0,1636.8 1295.0,1636.8 1260.0,1576.2 1295.0,1515.5 1365.0,1515.5"/>
<polygon points="1540.0,1576.2 1505.0,1636.8 1435.0,1636.8 1400.0,1576.2 1435.0,1515.5 1505.0,1515.5"/>
<polygon points="1680.0,1576.2 1645.0,1636.8 1575.0,1636.8 1540.0,1576.2 1575.0,1515.5 1645.0,1515.5"/>
<polygon points="1820.0,1576.2 1785.0,1636.8 1715.0,1636.8 1680.0,1576.2 1715.0,1515.5 1785.0,1515.5"/>
<polygon points="1960.0,1576.2 1925.0,1636.8 1855.0,1636.8 1820.0,1576.2 1855.0,1515.5 1925.0,1515.5"/>
<polygon points="2100.0,1576.2 2065.0,1636.8 1995.0,1636.8 1960.0,1576.2 1995.0,1515.5 2065.0,1515.5"/>
<polygon points="2240.0,1576.2 2205.0,1636.8 2135.0,1636.8 2100.0,1576.2 2135.0,1515.5 2205.0,1515.5"/>
<polygon points="2380.0,1576.2 2345.0,1636.8 2275.0,1636.8 2240.0,1576.2 2275.0,1515.5 2345.0,1515.5"/>
<polygon points="2520.0,1576.2 2485.0,1636.8 2415.0,1636.8 2380.0,1576.2 2415.0,1515.5 2485.0,1515.5"/>
<polygon points="2660.0,1576.2 2625.0,1636.8 2555.0,1636.8 2520.0,1576.2 2555.0,1515.5 2625.0,1515.5"/>
<polygon points="2800.0,1576.2 2765.0,1636.8 2695.0,1636.8 2660.0,1576.2 2695.0,1515.5 2765.0,1515.5"/>
<polygon points="2940.0,1576.2 2905.0,1636.8 2835.0,1636.8 2800.0,1576.2 2835.0,1515.5 2905.0,1515.5"/>
<polygon points="3080.0,1576.2 3045.0,1636.8 2975.0,1636.8 2940.0,1576.2 2975.0,1515.5 3045.0,1515.5"/>
<polygon points="3220.0,1576.2 3185.0,1636.8 3115.0,1636.8 3080.0,1576.2 3115.0,1515.5 3185.0,1515.5"/>
<polygon points="3360.0,1576.2 3325.0,1636.8 3255.0,1636.8 3220.0,1576.2 3255.0,1515.5 3325.0,1515.5"/>
<polygon points="3500.0,1576.2 3465.0,1636.8 3395.0,1636.8 3360.0,1576.2 3395.0,1515.5 3465.0,1515.5"/>
<polygon points="3640.0,1576.2 3605.0,1636.8 3535.0,1636.8 3500.0,1576.2 3535.0,1515.5 3605.0,1515.5"/>
<polygon points="3780.0,1576.2 3745.0,1636.8 3675.0,1636.8 3640.0,1576.2 3675.0,1515.5 3745.0,1515.5"/>
<polygon points="3920.0,1576.2 3885.0,1636.8 3815.0,1636.8 3780.0,1576.2 3815.0,1515.5 3885.0,1515.5"/>
<polygon points="4060.0,1576.2 4025.0,1636.8 3955.0,1636.8 3920.0,1576.2 3955.0,1515.5 4025.0,1515.5"/>
<polygon points="4200.0,1576.2 4165.0,1636.8 4095.0,1636.8 4060.0,1576.2 4095.0,1515.5 4165.0,1515.5"/>
<polygon points="70.0,1697.4 35.0,1758.0 -35.0,1758.0 -70.0,1697.4 -35.0,1636.8 35.0,1636.8"/>
<polygon points="210.0,1697.4 175.0,1758.0 105.0,1758.0 70.0,1697.4 105.0,1636.8 175.0,1636.8"/>
<polygon points="350.0,1697.4 315.0,1758.0 245.0,1758.0 210.0,1697.4 245.0,1636.8 315.0,1636.8"/>
<polygon points="490.0,1697.4 455.0,1758.0 385.0,1758.0 350.0,1697.4 385.0,1636.8 455.0,1636.8"/>
<polygon points="630.0,1697.4 595.0,1758.0 525.0,1758.0 490.0,1697.4 525.0,1636.8 595.0,1636.8"/>
<polygon points="770.0,1697.4 735.0,1758.0 665.0,1758.0 630.0,1697.4 665.0,1636.8 735.0,1636.8"/>
<polygon points="910.0,1697.4 875.0,1758.0 805.0,1758.0 770.0,1697.4 805.0,1636.8 875.0,1636.8"/>
<polygon points="1050.0,1697.4 1015.0,1758.0 945.0,1758.0 910.0,1697.4 945.0,1636.8 1015.0,1636.8"/>
<polygon points="1190.0,1697.4 1155.0,1758.0 1085.0,1758.0 1050.0,1697.4 1085.0,1636.8 1155.0,1636.8"/>
<polygon points="1330.0,1697.4 1295.0,1758.0 1225.0,1758.0 1190.0,1697.4 1225.0,1636.8 1295.0,1636.8"/>
<polygon points="1470.0,1697.4 1435.0,1758.0 1365.0,1758.0 1330.0,1697.4 1365.0,1636.8 1435.0,1636.8"/>
<polygon points="1610.0,1697.4 1575.0,1758.0 1505.0,1758.0 1470.0,1697.4 1505.0,1636.8 1575.0,1636.8"/>
<polygon points="1750.0,1697.4 1715.0,1758.0 1645.0,1758.0 1610.0,1697.4 1645.0,1636.8 1715.0,1636.8"/>
<polygon points="1890.0,1697.4 1855.0,1758.0 1785.0,1758.0 1750.0,1697.4 1785.0,1636.8 1855.0,1636.8"/>
<polygon points="2030.0,1697.4 1995.0,1758.0 1925.0,1758.0 1890.0,1697.4 1925.0,1636.8 1995.0,1636.8"/>
<polygon points="2170.0,1697.4 2135.0,1758.0 2065.0,1758.0 2030.0,1697.4 2065.0,1636.8 2135.0,1636.8"/>
<polygon points="2310.0,1697.4 2275.0,1758.0 2205.0,1758.0 2170.0,1697.4 2205.0,1636.8 2275.0,1636.8"/>
<polygon points="2450.0,1697.4 2415.0,1758.0 2345.0,1758.0 2310.0,1697.4 2345.0,1636.8 2415.0,1636.8"/>
<polygon points="2590.0,1697.4 2555.0,1758.0 2485.0,1758.0 2450.0,1697.4 2485.0,1636.8 2555.0,1636.8"/>
<polygon points="2730.0,1697.4 2695.0,1758.0 2625.0,1758.0 2590.0,1697.4 2625.0,1636.8 2695.0,1636.8"/>
<polygon points="2870.0,1697.4 2835.0,1758.0 2765.0,1758.0 2730.0,1697.4 2765.0,1636.8 2835.0,1636.8"/>
<polygon points="3010.0,1697.4 2975.0,1758.0 2905.0,1758.0 2870.0,1697.4 2905.0,1636.8 2975.0,1636.8"/>
<polygon points="3150.0,1697.4 3115.0,1758.0 3045.0,1758.0 3010.0,1697.4 3045.0,1636.8 3115.0,1636.8"/>
<polygon points="3290.0,1697.4 3255.0,1758.0 3185.0,1758.0 3150.0,1697.4 3185.0,1636.8 3255.0,1636.8"/>
<polygon points="3430.0,1697.4 3395.0,1758.0 3325.0,1758.0 3290.0,1697.4 3325.0,1636.8 3395.0,1636.8"/>
<polygon points="3570.0,1697.4 3535.0,1758.0 3465.0,1758.0 3430.0,1697.4 3465.0,1636.8 3535.0,1636.8"/>
<polygon points="3710.0,1697.4 3675.0,1758.0 3605.0,1758.0 3570.0,1697.4 3605.0,1636.8 3675.0,1636.8"/>
<polygon points="3850.0,1697.4 3815.0,1758.0 3745.0,1758.0 3710.0,1697.4 3745.0,1636.8 3815.0,1636.8"/>
<polygon points="3990.0,1697.4 3955.0,1758.0 3885.0,1758.0 3850.0,1697.4 3885.0,1636.8 3955.0,1636.8"/>
<polygon points="4130.0,1697.4 4095.0,1758.0 4025.0,1758.0 3990.0,1697.4 4025.0,1636.8 4095.0,1636.8"/>
<polygon points="140.0,1818.7 105.0,1879.3 35.0,1879.3 0.0,1818.7 35.0,1758.0 105.0,1758.0"/>
<polygon points="280.0,1818.7 245.0,1879.3 175.0,1879.3 140.0,1818.7 175.0,1758.0 245.0,1758.0"/>
<polygon points="420.0,1818.7 385.0,1879.3 315.0,1879.3 280.0,1818.7 315.0,1758.0 385.0,1758.0"/>
<polygon points="560.0,1818.7 525.0,1879.3 455.0,1879.3 420.0,1818.7 455.0,1758.0 525.0,1758.0"/>
<polygon points="700.0,1818.7 665.0,1879.3 595.0,1879.3 560.0,1818.7 595.0,1758.0 665.0,1758.0"/>
<polygon points="840.0,1818.7 805.0,1879.3 735.0,1879.3 700.0,1818.7 735.0,1758.0 805.0,1758.0"/>
<polygon points="980.0,1818.7 945.0,1879.3 875.0,1879.3 840.0,1818.7 875.0,1758.0 945.0,1758.0"/>
<polygon points="1120.0,1818.7 1085.0,1879.3 1015.0,1879.3 980.0,1818.7 1015.0,1758.0 1085.0,1758.0"/>
<polygon points="1260.0,1818.7 1225.0,1879.3 1155.0,1879.3 1120.0,1818.7 1155.0,1758.0 1225.0,1758.0"/>
<polygon points="1400.0,1818.7 1365.0,1879.3 1295.0,1879.3 1260.0,1818.7 1295.0,1758.0 1365.0,1758.0"/>
<polygon points="1540.0,1818.7 1505.0,1879.3 1435.0,1879.3 1400.0,1818.7 1435.0,1758.0 1505.0,1758.0"/>
<polygon points="1680.0,1818.7 1645.0,1879.3 1575.0,1879.3 1540.0,1818.7 1575.0,1758.0 1645.0,1758.0"/>
<polygon points="1820.0,1818.7 1785.0,1879.3 1715.0,1879.3 1680.0,1818.7 1715.0,1758.0 1785.0,1758.0"/>
<polygon points="1960.0,1818.7 1925.0,1879.3 1855.0,1879.3 1820.0,1818.7 1855.0,1758.0 1925.0,1758.0"/>
<polygon points="2100.0,1818.7 2065.0,1879.3 1995.0,1879.3 1960.0,1818.7 1995.0,1758.0 2065.0,1758.0"/>
<polygon points="2240.0,1818.7 2205.0,1879.3 2135.0,1879.3 2100.0,1818.7 2135.0,1758.0 2205.0,1758.0"/>
<polygon points="2380.0,1818.7 2345.0,1879.3 2275.0,1879.3 2240.0,1818.7 2275.0,1758.0 2345.0,1758.0"/>
<polygon points="2520.0,1818.7 2485.0,1879.3 2415.0,1879.3 2380.0,1818.7 2415.0,1758.0 2485.0,1758.0"/>
<polygon points="2660.0,1818.7 2625.0,1879.3 2555.0,1879.3 2520.0,1818.7 2555.0,1758.0 2625.0,1758.0"/>
<polygon points="2800.0,1818.7 2765.0,1879.3 2695.0,1879.3 2660.0,1818.7 2695.0,1758.0 2765.0,1758.0"/>
<polygon points="2940.0,1818.7 2905.0,1879.3 2835.0,1879.3 2800.0,1818.7 2835.0,1758.0 2905.0,1758.0"/>
<polygon points="3080.0,1818.7 3045.0,1879.3 2975.0,1879.3 2940.0,1818.7 2975.0,1758.0 3045.0,1758.0"/>
<polygon points="3220.0,1818.7 3185.0,1879.3 3115.0,1879.3 3080.0,1818.7 3115.0,1758.0 3185.0,1758.0"/>
<polygon points="3360.0,1818.7 3325.0,1879.3 3255.0,1879.3 3220.0,1818.7 3255.0,1758.0 3325.0,1758.0"/>
<polygon points="3500.0,1818.7 3465.0,1879.3 3395.0,1879.3 3360.0,1818.7 3395.0,1758.0 3465.0,1758.0"/>
<polygon points="3640.0,1818.7 3605.0,1879.3 3535.0,1879.3 3500.0,1818.7 3535.0,1758.0 3605.0,1758.0"/>
<polygon points="3780.0,1818.7 3745.0,1879.3 3675.0,1879.3 3640.0,1818.7 3675.0,1758.0 3745.0,1758.0"/>
<polygon points="3920.0,1818.7 3885.0,1879.3 3815.0,1879.3 3780.0,1818.7 3815.0,1758.0 3885.0,1758.0"/>
<polygon points="4060.0,1818.7 4025.0,1879.3 3955.0,1879.3 3920.0,1818.7 3955.0,1758.0 4025.0,1758.0"/>
<polygon points="4200.0,1818.7 4165.0,1879.3 4095.0,1879.3 4060.0,1818.7 4095.0,1758.0 4165.0,1758.0"/>
<polygon points="70.0,1939.9 35.0,2000.5 -35.0,2000.5 -70.0,1939.9 -35.0,1879.3 35.0,1879.3"/>
<polygon points="210.0,1939.9 175.0,2000.5 105.0,2000.5 70.0,1939.9 105.0,1879.3 175.0,1879.3"/>
<polygon points="350.0,1939.9 315.0,2000.5 245.0,2000.5 210.0,1939.9 245.0,1879.3 315.0,1879.3"/>
<polygon points="490.0,1939.9 455.0,2000.5 385.0,2000.5 350.0,1939.9 385.0,1879.3 455.0,1879.3"/>
<polygon points="630.0,1939.9 595.0,2000.5 525.0,2000.5 490.0,1939.9 525.0,1879.3 595.0,1879.3"/>
<polygon points="770.0,1939.9 735.0,2000.5 665.0,2000.5 630.0,1939.9 665.0,1879.3 735.0,1879.3"/>
<polygon points="910.0,1939.9 875.0,2000.5 805.0,2000.5 770.0,1939.9 805.0,1879.3 875.0,1879.3"/>
<polygon points="1050.0,1939.9 1015.0,2000.5 945.0,2000.5 910.0,1939.9 945.0,1879.3 1015.0,1879.3"/>
<polygon points="1190.0,1939.9 1155.0,2000.5 1085.0,2000.5 1050.0,1939.9 1085.0,1879.3 1155.0,1879.3"/>
<polygon points="1330.0,1939.9 1295.0,2000.5 1225.0,2000.5 1190.0,1939.9 1225.0,1879.3 1295.0,1879.3"/>
<polygon points="1470.0,1939.9 1435.0,2000.5 1365.0,2000.5 1330.0,1939.9 1365.0,1879.3 1435.0,1879.3"/>
<polygon points="1610.0,1939.9 1575.0,2000.5 1505.0,2000.5 1470.0,1939.9 1505.0,1879.3 1575.0,1879.3"/>
<polygon points="1750.0,1939.9 1715.0,2000.5 1645.0,2000.5 1610.0,1939.9 1645.0,1879.3 1715.0,1879.3"/>
<polygon points="1890.0,1939.9 1855.0,2000.5 1785.0,2000.5 1750.0,1939.9 1785.0,1879.3 1855.0,1879.3"/>
<polygon points="2030.0,1939.9 1995.0,2000.5 1925.0,2000.5 1890.0,1939.9 1925.0,1879.3 1995.0,1879.3"/>
<polygon points="2170.0,1939.9 2135.0,2000.5 2065.0,2000.5 2030.0,1939.9 2065.0,1879.3 2135.0,1879.3"/>
<polygon points="2310.0,1939.9 2275.0,2000.5 2205.0,2000.5 2170.0,1939.9 2205.0,1879.3 2275.0,1879.3"/>
<polygon points="2450.0,1939.9 2415.0,2000.5 2345.0,2000.5 2310.0,1939.9 2345.0,1879.3 2415.0,1879.3"/>
<polygon points="2590.0,1939.9 2555.0,2000.5 2485.0,2000.5 2450.0,1939.9 2485.0,1879.3 2555.0,1879.3"/>
<polygon points="2730.0,1939.9 2695.0,2000.5 2625.0,2000.5 2590.0,1939.9 2625.0,1879.3 2695.0,1879.3"/>
<polygon points="2870.0,1939.9 2835.0,2000.5 2765.0,2000.5 2730.0,1939.9 2765.0,1879.3 2835.0,1879.3"/>
<polygon points="3010.0,1939.9 2975.0,2000.5 2905.0,2000.5 2870.0,1939.9 2905.0,1879.3 2975.0,1879.3"/>
<polygon points="3150.0,1939.9 3115.0,2000.5 3045.0,2000.5 3010.0,1939.9 3045.0,1879.3 3115.0,1879.3"/>
<polygon points="3290.0,1939.9 3255.0,2000.5 3185.0,2000.5 3150.0,1939.9 3185.0,1879.3 3255.0,1879.3"/>
<polygon points="3430.0,1939.9 3395.0,2000.5 3325.0,2000.5 3290.0,1939.9 3325.0,1879.3 3395.0,1879.3"/>
<polygon points="3570.0,1939.9 3535.0,2000.5 3465.0,2000.5 3430.0,1939.9 3465.0,1879.3 3535.0,1879.3"/>
<polygon points="3710.0,1939.9 3675.0,2000.5 3605.0,2000.5 3570.0,1939.9 3605.0,1879.3 3675.0,1879.3"/>
<polygon points="3850.0,1939.9 3815.0,2000.5 3745.0,2000.5 3710.0,1939.9 3745.0,1879.3 3815.0,1879.3"/>
<polygon points="3990.0,1939.9 3955.0,2000.5 3885.0,2000.5 3850.0,1939.9 3885.0,1879.3 3955.0,1879.3"/>
<polygon points="4130.0,1939.9 4095.0,2000.5 4025.0,2000.5 3990.0,1939.9 4025.0,1879.3 4095.0,1879.3"/>
<polygon points="140.0,2061.1 105.0,2121.8 35.0,2121.8 0.0,2061.1 35.0,2000.5 105.0,2000.5"/>
<polygon points="280.0,2061.1 245.0,2121.8 175.0,2121.8 140.0,2061.1 175.0,2000.5 245.0,2000.5"/>
<polygon points="420.0,2061.1 385.0,2121.8 315.0,2121.8 280.0,2061.1 315.0,2000.5 385.0,2000.5"/>
<polygon points="560.0,2061.1 525.0,2121.8 455.0,2121.8 420.0,2061.1 455.0,2000.5 525.0,2000.5"/>
<polygon points="700.0,2061.1 665.0,2121.8 595.0,2121.8 560.0,2061.1 595.0,2000.5 665.0,2000.5"/>
<polygon points="840.0,2061.1 805.0,2121.8 735.0,2121.8 700.0,2061.1 735.0,2000.5 805.0,2000.5"/>
<polygon points="980.0,2061.1 945.0,2121.8 875.0,2121.8 840.0,2061.1 875.0,2000.5 945.0,2000.5"/>
<polygon points="1120.0,2061.1 1085.0,2121.8 1015.0,2121.8 980.0,2061.1 1015.0,2000.5 1085.0,2000.5"/>
<polygon points="1260.0,2061.1 1225.0,2121.8 1155.0,2121.8 1120.0,2061.1 1155.0,2000.5 1225.0,2000.5"/>
<polygon points="1400.0,2061.1 1365.0,2121.8 1295.0,2121.8 1260.0,2061.1 1295.0,2000.5 1365.0,2000.5"/>
<polygon points="1540.0,2061.1 1505.0,2121.8 1435.0,2121.8 1400.0,2061.1 1435.0,2000.5 1505.0,2000.5"/>
<polygon points="1680.0,2061.1 1645.0,2121.8 1575.0,2121.8 1540.0,2061.1 1575.0,2000.5 1645.0,2000.5"/>
<polygon points="1820.0,2061.1 1785.0,2121.8 1715.0,2121.8 1680.0,2061.1 1715.0,2000.5 1785.0,2000.5"/>
<polygon points="1960.0,2061.1 1925.0,2121.8 1855.0,2121.8 1820.0,2061.1 1855.0,2000.5 1925.0,2000.5"/>
<polygon points="2100.0,2061.1 2065.0,2121.8 1995.0,2121.8 1960.0,2061.1 1995.0,2000.5 2065.0,2000.5"/>
<polygon points="2240.0,2061.1 2205.0,2121.8 2135.0,2121.8 2100.0,2061.1 2135.0,2000.5 2205.0,2000.5"/>
<polygon points="2380.0,2061.1 2345.0,2121.8 2275.0,2121.8 2240.0,2061.1 2275.0,2000.5 2345.0,2000.5"/>
<polygon points="2520.0,2061.1 2485.0,2121.8 2415.0,2121.8 2380.0,2061.1 2415.0,2000.5 2485.0,2000.5"/>
<polygon points="2660.0,2061.1 2625.0,2121.8 2555.0,2121.8 2520.0,2061.1 2555.0,2000.5 2625.0,2000.5"/>
<polygon points="2800.0,2061.1 2765.0,2121.8 2695.0,2121.8 2660.0,2061.1 2695.0,2000.5 2765.0,2000.5"/>
<polygon points="2940.0,2061.1 2905.0,2121.8 2835.0,2121.8 2800.0,2061.1 2835.0,2000.5 2905.0,2000.5"/>
<polygon points="3080.0,2061.1 3045.0,2121.8 2975.0,2121.8 2940.0,2061.1 2975.0,2000.5 3045.0,2000.5"/>
<polygon points="3220.0,2061.1 3185.0,2121.8 3115.0,2121.8 3080.0,2061.1 3115.0,2000.5 3185.0,2000.5"/>
<polygon points="3360.0,2061.1 3325.0,2121.8 3255.0,2121.8 3220.0,2061.1 3255.0,2000.5 3325.0,2000.5"/>
<polygon points="3500.0,2061.1 3465.0,2121.8 3395.0,2121.8 3360.0,2061.1 3395.0,2000.5 3465.0,2000.5"/>
<polygon points="3640.0,2061.1 3605.0,2121.8 3535.0,2121.8 3500.0,2061.1 3535.0,2000.5 3605.0,2000.5"/>
<polygon points="3780.0,2061.1 3745.0,2121.8 3675.0,2121.8 3640.0,2061.1 3675.0,2000.5 3745.0,2000.5"/>
<polygon points="3920.0,2061.1 3885.0,2121.8 3815.0,2121.8 3780.0,2061.1 3815.0,2000.5 3885.0,2000.5"/>
<polygon points="4060.0,2061.1 4025.0,2121.8 3955.0,2121.8 3920.0,2061.1 3955.0,2000.5 4025.0,2000.5"/>
<polygon points="4200.0,2061.1 4165.0,2121.8 4095.0,2121.8 4060.0,2061.1 4095.0,2000.5 4165.0,2000.5"/>
<polygon points="70.0,2182.4 35.0,2243.0 -35.0,2243.0 -70.0,2182.4 -35.0,2121.8 35.0,2121.8"/>
<polygon points="210.0,2182.4 175.0,2243.0 105.0,2243.0 70.0,2182.4 105.0,2121.8 175.0,2121.8"/>
<polygon points="350.0,2182.4 315.0,2243.0 245.0,2243.0 210.0,2182.4 245.0,2121.8 315.0,2121.8"/>
<polygon points="490.0,2182.4 455.0,2243.0 385.0,2243.0 350.0,2182.4 385.0,2121.8 455.0,2121.8"/>
<polygon points="630.0,2182.4 595.0,2243.0 525.0,2243.0 490.0,2182.4 525.0,2121.8 595.0,2121.8"/>
<polygon points="770.0,2182.4 735.0,2243.0 665.0,2243.0 630.0,2182.4 665.0,2121.8 735.0,2121.8"/>
<polygon points="910.0,2182.4 875.0,2243.0 805.0,2243.0 770.0,2182.4 805.0,2121.8 875.0,2121.8"/>
<polygon points="1050.0,2182.4 1015.0,2243.0 945.0,2243.0 910.0,2182.4 945.0,2121.8 1015.0,2121.8"/>
<polygon points="1190.0,2182.4 1155.0,2243.0 1085.0,2243.0 1050.0,2182.4 1085.0,2121.8 1155.0,2121.8"/>
<polygon points="1330.0,2182.4 1295.0,2243.0 1225.0,2243.0 1190.0,2182.4 1225.0,2121.8 1295.0,2121.8"/>
<polygon points="1470.0,2182.4 1435.0,2243.0 1365.0,2243.0 1330.0,2182.4 1365.0,2121.8 1435.0,2121.8"/>
<polygon points="1610.0,2182.4 1575.0,2243.0 1505.0,2243.0 1470.0,2182.4 1505.0,2121.8 1575.0,2121.8"/>
<polygon points="1750.0,2182.4 1715.0,2243.0 1645.0,2243.0 1610.0,2182.4 1645.0,2121.8 1715.0,2121.8"/>
<polygon points="1890.0,2182.4 1855.0,2243.0 1785.0,2243.0 1750.0,2182.4 1785.0,2121.8 1855.0,2121.8"/>
<polygon points="2030.0,2182.4 1995.0,2243.0 1925.0,2243.0 1890.0,2182.4 1925.0,2121.8 1995.0,2121.8"/>
<polygon points="2170.0,2182.4 2135.0,2243.0 2065.0,2243.0 2030.0,2182.4 2065.0,2121.8 2135.0,2121.8"/>
<polygon points="2310.0,2182.4 2275.0,2243.0 2205.0,2243.0 2170.0,2182.4 2205.0,2121.8 2275.0,2121.8"/>
<polygon points="2450.0,2182.4 2415.0,2243.0 2345.0,2243.0 2310.0,2182.4 2345.0,2121.8 2415.0,2121.8"/>
<polygon points="2590.0,2182.4 2555.0,2243.0 2485.0,2243.0 2450.0,2182.4 2485.0,2121.8 2555.0,2121.8"/>
<polygon points="2730.0,2182.4 2695.0,2243.0 2625.0,2243.0 2590.0,2182.4 2625.0,2121.8 2695.0,2121.8"/>
<polygon points="2870.0,2182.4 2835.0,2243.0 2765.0,2243.0 2730.0,2182.4 2765.0,2121.8 2835.0,2121.8"/>
<polygon points="3010.0,2182.4 2975.0,2243.0 2905.0,2243.0 2870.0,2182.4 2905.0,2121.8 2975.0,2121.8"/>
<polygon points="3150.0,2182.4 3115.0,2243.0 3045.0,2243.0 3010.0,2182.4 3045.0,2121.8 3115.0,2121.8"/>
<polygon points="3290.0,2182.4 3255.0,2243.0 3185.0,2243.0 3150.0,2182.4 3185.0,2121.8 3255.0,2121.8"/>
<polygon points="3430.0,2182.4 3395.0,2243.0 3325.0,2243.0 3290.0,2182.4 3325.0,2121.8 3395.0,2121.8"/>
<polygon points="3570.0,2182.4 3535.0,2243.0 3465.0,2243.0 3430.0,2182.4 3465.0,2121.8 3535.0,2121.8"/>
<polygon points="3710.0,2182.4 3675.0,2243.0 3605.0,2243.0 3570.0,2182.4 3605.0,2121.8 3675.0,2121.8"/>
<polygon points="3850.0,2182.4 3815.0,2243.0 3745.0,2243.0 3710.0,2182.4 3745.0,2121.8 3815.0,2121.8"/>
<polygon points="3990.0,2182.4 3955.0,2243.0 3885.0,2243.0 3850.0,2182.4 3885.0,2121.8 3955.0,2121.8"/>
<polygon points="4130.0,2182.4 4095.0,2243.0 4025.0,2243.0 3990.0,2182.4 4025.0,2121.8 4095.0,2121.8"/>
<polygon points="140.0,2303.6 105.0,2364.2 35.0,2364.2 0.0,2303.6 35.0,2243.0 105.0,2243.0"/>
<polygon points="280.0,2303.6 245.0,2364.2 175.0,2364.2 140.0,2303.6 175.0,2243.0 245.0,2243.0"/>
<polygon points="420.0,2303.6 385.0,2364.2 315.0,2364.2 280.0,2303.6 315.0,2243.0 385.0,2243.0"/>
<polygon points="560.0,2303.6 525.0,2364.2 455.0,2364.2 420.0,2303.6 455.0,2243.0 525.0,2243.0"/>
<polygon points="700.0,2303.6 665.0,2364.2 595.0,2364.2 560.0,2303.6 595.0,2243.0 665.0,2243.0"/>
<polygon points="840.0,2303.6 805.0,2364.2 735.0,2364.2 700.0,2303.6 735.0,2243.0 805.0,2243.0"/>
<polygon points="980.0,2303.6 945.0,2364.2 875.0,2364.2 840.0,2303.6 875.0,2243.0 945.0,2243.0"/>
<polygon points="1120.0,2303.6 1085.0,2364.2 1015.0,2364.2 980.0,2303.6 1015.0,2243.0 1085.0,2243.0"/>
<polygon points="1260.0,2303.6 1225.0,2364.2 1155.0,2364.2 1120.0,2303.6 1155.0,2243.0 1225.0,2243.0"/>
<polygon points="1400.0,2303.6 1365.0,2364.2 1295.0,2364.2 1260.0,2303.6 1295.0,2243.0 1365.0,2243.0"/>
<polygon points="1540.0,2303.6 1505.0,2364.2 1435.0,2364.2 1400.0,2303.6 1435.0,2243.0 1505.0,2243.0"/>
<polygon points="1680.0,2303.6 1645.0,2364.2 1575.0,2364.2 1540.0,2303.6 1575.0,2243.0 1645.0,2243.0"/>
<polygon points="1820.0,2303.6 1785.0,2364.2 1715.0,2364.2 1680.0,2303.6 1715.0,2243.0 1785.0,2243.0"/>
<polygon points="1960.0,2303.6 1925.0,2364.2 1855.0,2364.2 1820.0,2303.6 1855.0,2243.0 1925.0,2243.0"/>
<polygon points="2100.0,2303.6 2065.0,2364.2 1995.0,2364.2 1960.0,2303.6 1995.0,2243.0 2065.0,2243.0"/>
<polygon points="2240.0,2303.6 2205.0,2364.2 2135.0,2364.2 2100.0,2303.6 2135.0,2243.0 2205.0,2243.0"/>
<polygon points="2380.0,2303.6 2345.0,2364.2 2275.0,2364.2 2240.0,2303.6 2275.0,2243.0 2345.0,2243.0"/>
<polygon points="2520.0,2303.6 2485.0,2364.2 2415.0,2364.2 2380.0,2303.6 2415.0,2243.0 2485.0,2243.0"/>
<polygon points="2660.0,2303.6 2625.0,2364.2 2555.0,2364.2 2520.0,2303.6 2555.0,2243.0 2625.0,2243.0"/>
<polygon points="2800.0,2303.6 2765.0,2364.2 2695.0,2364.2 2660.0,2303.6 2695.0,2243.0 2765.0,2243.0"/>
<polygon points="2940.0,2303.6 2905.0,2364.2 2835.0,2364.2 2800.0,2303.6 2835.0,2243.0 2905.0,2243.0"/>
<polygon points="3080.0,2303.6 3045.0,2364.2 2975.0,2364.2 2940.0,2303.6 2975.0,2243.0 3045.0,2243.0"/>
<polygon points="3220.0,2303.6 3185.0,2364.2 3115.0,2364.2 3080.0,2303.6 3115.0,2243.0 3185.0,2243.0"/>
<polygon points="3360.0,2303.6 3325.0,2364.2 3255.0,2364.2 3220.0,2303.6 3255.0,2243.0 3325.0,2243.0"/>
<polygon points="3500.0,2303.6 3465.0,2364.2 3395.0,2364.2 3360.0,2303.6 3395.0,2243.0 3465.0,2243.0"/>
<polygon points="3640.0,2303.6 3605.0,2364.2 3535.0,2364.2 3500.0,2303.6 3535.0,2243.0 3605.0,2243.0"/>
<polygon points="3780.0,2303.6 3745.0,2364.2 3675.0,2364.2 3640.0,2303.6 3675.0,2243.0 3745.0,2243.0"/>
<polygon points="3920.0,2303.6 3885.0,2364.2 3815.0,2364.2 3780.0,2303.6 3815.0,2243.0 3885.0,2243.0"/>
<polygon points="4060.0,2303.6 4025.0,2364.2 3955.0,2364.2 3920.0,2303.6 3955.0,2243.0 4025.0,2243.0"/>
<polygon points="4200.0,2303.6 4165.0,2364.2 4095.0,2364.2 4060.0,2303.6 4095.0,2243.0 4165.0,2243.0"/>
</g>
  <g fill="none" stroke-linecap="round" stroke-linejoin="round"><defs><filter id="glow2" x="-30%" y="-30%" width="160%" height="160%"><feGaussianBlur stdDeviation="2.2" result="b"/><feMerge><feMergeNode in="b"/><feMergeNode in="SourceGraphic"/></feMerge></filter></defs><g filter="url(#glow2)"><path d="M179,222 C1033,682 1937,1530 2805,1537" stroke="#FF914D" stroke-opacity="0.28" stroke-width="1.19"/>
<path d="M650,331 C630,1114 2135,1530 3536,1750" stroke="#6EC1FF" stroke-opacity="0.31" stroke-width="1.92"/>
<path d="M-371,567 C902,972 2424,1256 3858,1796" stroke="#6EC1FF" stroke-opacity="0.37" stroke-width="1.34"/>
<path d="M-186,202 C1280,1158 2269,1016 3039,1901" stroke="#FF914D" stroke-opacity="0.28" stroke-width="2.61"/>
<path d="M-223,235 C1176,1183 2468,1563 3434,1899" stroke="#6EC1FF" stroke-opacity="0.41" stroke-width="1.42"/>
<path d="M92,404 C782,929 2297,1436 4078,1593" stroke="#6EC1FF" stroke-opacity="0.35" stroke-width="2.40"/>
<path d="M374,481 C1005,813 1874,1595 3031,1678" stroke="#FF914D" stroke-opacity="0.24" stroke-width="2.40"/>
<path d="M168,581 C1716,764 2392,1029 4199,1900" stroke="#6EC1FF" stroke-opacity="0.29" stroke-width="1.50"/>
<path d="M437,140 C711,756 2372,1189 2852,1835" stroke="#6EC1FF" stroke-opacity="0.16" stroke-width="2.44"/>
<path d="M158,577 C1081,1114 2831,1241 2589,1658" stroke="#FF914D" stroke-opacity="0.41" stroke-width="2.64"/>
<path d="M357,546 C859,1061 2738,1065 2753,1920" stroke="#6EC1FF" stroke-opacity="0.33" stroke-width="2.66"/>
<path d="M-254,271 C1357,1150 2686,1513 3092,1944" stroke="#6EC1FF" stroke-opacity="0.26" stroke-width="1.55"/>
<path d="M715,119 C1122,888 1956,1272 3841,1629" stroke="#FF914D" stroke-opacity="0.14" stroke-width="1.96"/>
</g></g>
  <g><circle cx="1374" cy="665" r="3.2" fill="#ff7300" fill-opacity="0.26"/>
<circle cx="1374" cy="665" r="12.9" stroke="#ff7300" stroke-opacity="0.14" fill="none"/>
<circle cx="3411" cy="433" r="3.2" fill="#00b7ff" fill-opacity="0.27"/>
<circle cx="3411" cy="433" r="12.6" stroke="#00b7ff" stroke-opacity="0.14" fill="none"/>
<circle cx="2126" cy="927" r="2.3" fill="#ff7300" fill-opacity="0.38"/>
<circle cx="2126" cy="927" r="9.2" stroke="#ff7300" stroke-opacity="0.14" fill="none"/>
<circle cx="334" cy="1033" r="2.4" fill="#00b7ff" fill-opacity="0.38"/>
<circle cx="334" cy="1033" r="9.7" stroke="#00b7ff" stroke-opacity="0.14" fill="none"/>
<circle cx="3434" cy="555" r="4.7" fill="#ff7300" fill-opacity="0.44"/>
<circle cx="3434" cy="555" r="18.7" stroke="#ff7300" stroke-opacity="0.14" fill="none"/>
<circle cx="2435" cy="301" r="3.7" fill="#00b7ff" fill-opacity="0.37"/>
<circle cx="2435" cy="301" r="14.8" stroke="#00b7ff" stroke-opacity="0.14" fill="none"/>
<circle cx="953" cy="238" r="3.6" fill="#ff7300" fill-opacity="0.29"/>
<circle cx="953" cy="238" r="14.6" stroke="#ff7300" stroke-opacity="0.14" fill="none"/>
<circle cx="1764" cy="638" r="3.6" fill="#00b7ff" fill-opacity="0.42"/>
<circle cx="1764" cy="638" r="14.4" stroke="#00b7ff" stroke-opacity="0.14" fill="none"/>
<circle cx="2342" cy="788" r="2.5" fill="#ff7300" fill-opacity="0.42"/>
<circle cx="2342" cy="788" r="9.9" stroke="#ff7300" stroke-opacity="0.14" fill="none"/>
<circle cx="817" cy="1573" r="2.5" fill="#00b7ff" fill-opacity="0.46"/>
<circle cx="817" cy="1573" r="9.8" stroke="#00b7ff" stroke-opacity="0.14" fill="none"/>
<circle cx="2359" cy="292" r="3.8" fill="#ff7300" fill-opacity="0.40"/>
<circle cx="2359" cy="292" r="15.2" stroke="#ff7300" stroke-opacity="0.14" fill="none"/>
<circle cx="2225" cy="1799" r="4.2" fill="#00b7ff" fill-opacity="0.39"/>
<circle cx="2225" cy="1799" r="16.9" stroke="#00b7ff" stroke-opacity="0.14" fill="none"/>
<circle cx="1904" cy="1529" r="3.0" fill="#ff7300" fill-opacity="0.49"/>
<circle cx="1904" cy="1529" r="11.9" stroke="#ff7300" stroke-opacity="0.14" fill="none"/>
<circle cx="2911" cy="1047" r="2.4" fill="#00b7ff" fill-opacity="0.34"/>
<circle cx="2911" cy="1047" r="9.7" stroke="#00b7ff" stroke-opacity="0.14" fill="none"/>
<circle cx="2075" cy="1454" r="4.1" fill="#ff7300" fill-opacity="0.34"/>
<circle cx="2075" cy="1454" r="16.4" stroke="#ff7300" stroke-opacity="0.14" fill="none"/>
<circle cx="347" cy="531" r="3.5" fill="#00b7ff" fill-opacity="0.30"/>
<circle cx="347" cy="531" r="14.1" stroke="#00b7ff" stroke-opacity="0.14" fill="none"/>
<circle cx="1449" cy="670" r="4.6" fill="#ff7300" fill-opacity="0.38"/>
<circle cx="1449" cy="670" r="18.5" stroke="#ff7300" stroke-opacity="0.14" fill="none"/>
<circle cx="2785" cy="365" r="4.2" fill="#00b7ff" fill-opacity="0.42"/>
<circle cx="2785" cy="365" r="16.8" stroke="#00b7ff" stroke-opacity="0.14" fill="none"/>
<circle cx="3633" cy="1333" r="3.1" fill="#ff7300" fill-opacity="0.36"/>
<circle cx="3633" cy="1333" r="12.3" stroke="#ff7300" stroke-opacity="0.14" fill="none"/>
<circle cx="2082" cy="1916" r="2.4" fill="#00b7ff" fill-opacity="0.28"/>
<circle cx="2082" cy="1916" r="9.5" stroke="#00b7ff" stroke-opacity="0.14" fill="none"/>
<circle cx="1153" cy="1989" r="4.0" fill="#ff7300" fill-opacity="0.27"/>
<circle cx="1153" cy="1989" r="16.0" stroke="#ff7300" stroke-opacity="0.14" fill="none"/>
<circle cx="3042" cy="1316" r="3.9" fill="#00b7ff" fill-opacity="0.55"/>
<circle cx="3042" cy="1316" r="15.5" stroke="#00b7ff" stroke-opacity="0.14" fill="none"/>
<circle cx="3414" cy="1873" r="2.9" fill="#ff7300" fill-opacity="0.37"/>
<circle cx="3414" cy="1873" r="11.8" stroke="#ff7300" stroke-opacity="0.14" fill="none"/>
<circle cx="2786" cy="1469" r="2.3" fill="#00b7ff" fill-opacity="0.39"/>
<circle cx="2786" cy="1469" r="9.0" stroke="#00b7ff" stroke-opacity="0.14" fill="none"/>
<circle cx="736" cy="527" r="3.5" fill="#ff7300" fill-opacity="0.32"/>
<circle cx="736" cy="527" r="13.9" stroke="#ff7300" stroke-opacity="0.14" fill="none"/>
<circle cx="1225" cy="577" r="4.1" fill="#00b7ff" fill-opacity="0.37"/>
<circle cx="1225" cy="577" r="16.5" stroke="#00b7ff" stroke-opacity="0.14" fill="none"/>
<circle cx="3617" cy="2081" r="2.4" fill="#ff7300" fill-opacity="0.38"/>
<circle cx="3617" cy="2081" r="9.6" stroke="#ff7300" stroke-opacity="0.14" fill="none"/>
<circle cx="2298" cy="1186" r="4.5" fill="#00b7ff" fill-opacity="0.50"/>
<circle cx="2298" cy="1186" r="18.0" stroke="#00b7ff" stroke-opacity="0.14" fill="none"/>
<circle cx="3586" cy="1188" r="4.0" fill="#ff7300" fill-opacity="0.55"/>
<circle cx="3586" cy="1188" r="16.1" stroke="#ff7300" stroke-opacity="0.14" fill="none"/>
<circle cx="2844" cy="1606" r="4.7" fill="#00b7ff" fill-opacity="0.30"/>
<circle cx="2844" cy="1606" r="18.8" stroke="#00b7ff" stroke-opacity="0.14" fill="none"/>
<circle cx="769" cy="667" r="2.8" fill="#ff7300" fill-opacity="0.32"/>
<circle cx="769" cy="667" r="11.2" stroke="#ff7300" stroke-opacity="0.14" fill="none"/>
<circle cx="2034" cy="794" r="2.9" fill="#00b7ff" fill-opacity="0.25"/>
<circle cx="2034" cy="794" r="11.5" stroke="#00b7ff" stroke-opacity="0.14" fill="none"/>
<circle cx="1764" cy="1560" r="3.8" fill="#ff7300" fill-opacity="0.35"/>
<circle cx="1764" cy="1560" r="15.1" stroke="#ff7300" stroke-opacity="0.14" fill="none"/>
<circle cx="562" cy="269" r="3.4" fill="#00b7ff" fill-opacity="0.51"/>
<circle cx="562" cy="269" r="13.5" stroke="#00b7ff" stroke-opacity="0.14" fill="none"/>
<circle cx="3630" cy="1655" r="3.2" fill="#ff7300" fill-opacity="0.37"/>
<circle cx="3630" cy="1655" r="12.9" stroke="#ff7300" stroke-opacity="0.14" fill="none"/>
<circle cx="2020" cy="1688" r="2.4" fill="#00b7ff" fill-opacity="0.27"/>
<circle cx="2020" cy="1688" r="9.4" stroke="#00b7ff" stroke-opacity="0.14" fill="none"/>
<circle cx="903" cy="1852" r="2.6" fill="#ff7300" fill-opacity="0.35"/>
<circle cx="903" cy="1852" r="10.5" stroke="#ff7300" stroke-opacity="0.14" fill="none"/>
<circle cx="263" cy="467" r="2.2" fill="#00b7ff" fill-opacity="0.30"/>
<circle cx="263" cy="467" r="8.8" stroke="#00b7ff" stroke-opacity="0.14" fill="none"/>
<circle cx="463" cy="1537" r="3.8" fill="#ff7300" fill-opacity="0.27"/>
<circle cx="463" cy="1537" r="15.2" stroke="#ff7300" stroke-opacity="0.14" fill="none"/>
<circle cx="899" cy="1589" r="2.6" fill="#00b7ff" fill-opacity="0.33"/>
<circle cx="899" cy="1589" r="10.3" stroke="#00b7ff" stroke-opacity="0.14" fill="none"/>
<circle cx="1470" cy="1539" r="3.4" fill="#ff7300" fill-opacity="0.28"/>
<circle cx="1470" cy="1539" r="13.7" stroke="#ff7300" stroke-opacity="0.14" fill="none"/>
<circle cx="2047" cy="1956" r="3.4" fill="#00b7ff" fill-opacity="0.34"/>
<circle cx="2047" cy="1956" r="13.8" stroke="#00b7ff" stroke-opacity="0.14" fill="none"/>
</g>
  <g stroke="#9ad9ff" stroke-opacity="0.07">
<line x1="62" y1="699" x2="62" y2="892" stroke-width="1"/>
<line x1="62" y1="612" x2="62" y2="710" stroke-width="1"/>
<line x1="62" y1="897" x2="62" y2="971" stroke-width="1"/>
<line x1="62" y1="234" x2="62" y2="338" stroke-width="1"/>
<line x1="62" y1="1449" x2="62" y2="1624" stroke-width="1"/>
<line x1="62" y1="2086" x2="62" y2="2148" stroke-width="1"/>
<line x1="62" y1="1884" x2="62" y2="1975" stroke-width="1"/>
<line x1="62" y1="1607" x2="62" y2="1803" stroke-width="1"/>
<line x1="62" y1="767" x2="62" y2="902" stroke-width="1"/>
<line x1="198" y1="750" x2="198" y2="828" stroke-width="1"/>
<line x1="198" y1="1770" x2="198" y2="1855" stroke-width="1"/>
<line x1="198" y1="1267" x2="198" y2="1328" stroke-width="1"/>
<line x1="198" y1="2045" x2="198" y2="2107" stroke-width="1"/>
<line x1="198" y1="1801" x2="198" y2="1921" stroke-width="1"/>
<line x1="198" y1="1529" x2="198" y2="1579" stroke-width="1"/>
<line x1="198" y1="983" x2="198" y2="1165" stroke-width="1"/>
<line x1="198" y1="-89" x2="198" y2="59" stroke-width="1"/>
<line x1="198" y1="714" x2="198" y2="846" stroke-width="1"/>
<line x1="329" y1="2068" x2="329" y2="2128" stroke-width="1"/>
<line x1="329" y1="1772" x2="329" y2="1944" stroke-width="1"/>
<line x1="329" y1="691" x2="329" y2="886" stroke-width="1"/>
<line x1="329" y1="1775" x2="329" y2="1828" stroke-width="1"/>
<line x1="329" y1="1344" x2="329" y2="1417" stroke-width="1"/>
<line x1="329" y1="764" x2="329" y2="845" stroke-width="1"/>
<line x1="329" y1="1689" x2="329" y2="1881" stroke-width="1"/>
<line x1="329" y1="607" x2="329" y2="775" stroke-width="1"/>
<line x1="329" y1="600" x2="329" y2="649" stroke-width="1"/>
<line x1="440" y1="581" x2="440" y2="742" stroke-width="1"/>
<line x1="440" y1="1596" x2="440" y2="1656" stroke-width="1"/>
<line x1="440" y1="1622" x2="440" y2="1684" stroke-width="1"/>
<line x1="440" y1="465" x2="440" y2="584" stroke-width="1"/>
<line x1="440" y1="-97" x2="440" y2="40" stroke-width="1"/>
<line x1="440" y1="1230" x2="440" y2="1304" stroke-width="1"/>
<line x1="440" y1="2023" x2="440" y2="2166" stroke-width="1"/>
<line x1="440" y1="702" x2="440" y2="756" stroke-width="1"/>
<line x1="440" y1="746" x2="440" y2="899" stroke-width="1"/>
<line x1="571" y1="1535" x2="571" y2="1607" stroke-width="1"/>
<line x1="571" y1="1329" x2="571" y2="1490" stroke-width="1"/>
<line x1="571" y1="108" x2="571" y2="181" stroke-width="1"/>
<line x1="571" y1="496" x2="571" y2="691" stroke-width="1"/>
<line x1="571" y1="1552" x2="571" y2="1623" stroke-width="1"/>
<line x1="571" y1="275" x2="571" y2="345" stroke-width="1"/>
<line x1="571" y1="468" x2="571" y2="583" stroke-width="1"/>
<line x1="571" y1="593" x2="571" y2="678" stroke-width="1"/>
<line x1="571" y1="1558" x2="571" y2="1635" stroke-width="1"/>
<line x1="712" y1="1187" x2="712" y2="1354" stroke-width="1"/>
<line x1="712" y1="838" x2="712" y2="943" stroke-width="1"/>
<line x1="712" y1="360" x2="712" y2="492" stroke-width="1"/>
<line x1="712" y1="641" x2="712" y2="699" stroke-width="1"/>
<line x1="712" y1="1933" x2="712" y2="2046" stroke-width="1"/>
<line x1="712" y1="-75" x2="712" y2="114" stroke-width="1"/>
<line x1="712" y1="75" x2="712" y2="201" stroke-width="1"/>
<line x1="712" y1="766" x2="712" y2="902" stroke-width="1"/>
<line x1="712" y1="1514" x2="712" y2="1640" stroke-width="1"/>
<line x1="838" y1="1515" x2="838" y2="1653" stroke-width="1"/>
<line x1="838" y1="1576" x2="838" y2="1710" stroke-width="1"/>
<line x1="838" y1="2068" x2="838" y2="2131" stroke-width="1"/>
<line x1="838" y1="622" x2="838" y2="671" stroke-width="1"/>
<line x1="838" y1="1407" x2="838" y2="1549" stroke-width="1"/>
<line x1="838" y1="1698" x2="838" y2="1796" stroke-width="1"/>
<line x1="838" y1="1155" x2="838" y2="1252" stroke-width="1"/>
<line x1="838" y1="1152" x2="838" y2="1219" stroke-width="1"/>
<line x1="838" y1="1165" x2="838" y2="1260" stroke-width="1"/>
<line x1="965" y1="902" x2="965" y2="1040" stroke-width="1"/>
<line x1="965" y1="1093" x2="965" y2="1245" stroke-width="1"/>
<line x1="965" y1="208" x2="965" y2="360" stroke-width="1"/>
<line x1="965" y1="1604" x2="965" y2="1709" stroke-width="1"/>
<line x1="965" y1="165" x2="965" y2="333" stroke-width="1"/>
<line x1="965" y1="1080" x2="965" y2="1202" stroke-width="1"/>
<line x1="965" y1="1834" x2="965" y2="2010" stroke-width="1"/>
<line x1="965" y1="401" x2="965" y2="506" stroke-width="1"/>
<line x1="965" y1="1645" x2="965" y2="1759" stroke-width="1"/>
<line x1="1086" y1="532" x2="1086" y2="644" stroke-width="1"/>
<line x1="1086" y1="1432" x2="1086" y2="1626" stroke-width="1"/>
<line x1="1086" y1="1682" x2="1086" y2="1771" stroke-width="1"/>
<line x1="1086" y1="1435" x2="1086" y2="1561" stroke-width="1"/>
<line x1="1086" y1="689" x2="1086" y2="817" stroke-width="1"/>
<line x1="1086" y1="-103" x2="1086" y2="27" stroke-width="1"/>
<line x1="1086" y1="1089" x2="1086" y2="1178" stroke-width="1"/>
<line x1="1086" y1="583" x2="1086" y2="689" stroke-width="1"/>
<line x1="1086" y1="1586" x2="1086" y2="1685" stroke-width="1"/>
<line x1="1214" y1="1295" x2="1214" y2="1437" stroke-width="1"/>
<line x1="1214" y1="-106" x2="1214" y2="-38" stroke-width="1"/>
<line x1="1214" y1="1934" x2="1214" y2="2110" stroke-width="1"/>
<line x1="1214" y1="709" x2="1214" y2="749" stroke-width="1"/>
<line x1="1214" y1="2018" x2="1214" y2="2137" stroke-width="1"/>
<line x1="1214" y1="565" x2="1214" y2="735" stroke-width="1"/>
<line x1="1214" y1="1699" x2="1214" y2="1791" stroke-width="1"/>
<line x1="1214" y1="960" x2="1214" y2="1106" stroke-width="1"/>
<line x1="1214" y1="1797" x2="1214" y2="1980" stroke-width="1"/>
<line x1="1344" y1="1057" x2="1344" y2="1148" stroke-width="1"/>
<line x1="1344" y1="-36" x2="1344" y2="30" stroke-width="1"/>
<line x1="1344" y1="1139" x2="1344" y2="1198" stroke-width="1"/>
<line x1="1344" y1="10" x2="1344" y2="64" stroke-width="1"/>
<line x1="1344" y1="1587" x2="1344" y2="1703" stroke-width="1"/>
<line x1="1344" y1="1392" x2="1344" y2="1574" stroke-width="1"/>
<line x1="1344" y1="1089" x2="1344" y2="1178" stroke-width="1"/>
<line x1="1344" y1="290" x2="1344" y2="431" stroke-width="1"/>
<line x1="1344" y1="1512" x2="1344" y2="1596" stroke-width="1"/>
<line x1="1467" y1="1227" x2="1467" y2="1299" stroke-width="1"/>
<line x1="1467" y1="415" x2="1467" y2="569" stroke-width="1"/>
<line x1="1467" y1="1473" x2="1467" y2="1620" stroke-width="1"/>
<line x1="1467" y1="612" x2="1467" y2="744" stroke-width="1"/>
<line x1="1467" y1="904" x2="1467" y2="997" stroke-width="1"/>
<line x1="1467" y1="1000" x2="1467" y2="1158" stroke-width="1"/>
<line x1="1467" y1="1447" x2="1467" y2="1534" stroke-width="1"/>
<line x1="1467" y1="1842" x2="1467" y2="2028" stroke-width="1"/>
<line x1="1467" y1="1831" x2="1467" y2="1914" stroke-width="1"/>
<line x1="1609" y1="2057" x2="1609" y2="2158" stroke-width="1"/>
<line x1="1609" y1="1763" x2="1609" y2="1936" stroke-width="1"/>
<line x1="1609" y1="-57" x2="1609" y2="12" stroke-width="1"/>
<line x1="1609" y1="1230" x2="1609" y2="1396" stroke-width="1"/>
<line x1="1609" y1="175" x2="1609" y2="300" stroke-width="1"/>
<line x1="1609" y1="-104" x2="1609" y2="81" stroke-width="1"/>
<line x1="1609" y1="2063" x2="1609" y2="2173" stroke-width="1"/>
<line x1="1609" y1="-71" x2="1609" y2="118" stroke-width="1"/>
<line x1="1609" y1="1186" x2="1609" y2="1331" stroke-width="1"/>
<line x1="1723" y1="437" x2="1723" y2="627" stroke-width="1"/>
<line x1="1723" y1="74" x2="1723" y2="215" stroke-width="1"/>
<line x1="1723" y1="28" x2="1723" y2="80" stroke-width="1"/>
<line x1="1723" y1="1282" x2="1723" y2="1452" stroke-width="1"/>
<line x1="1723" y1="821" x2="1723" y2="1003" stroke-width="1"/>
<line x1="1723" y1="1076" x2="1723" y2="1156" stroke-width="1"/>
<line x1="1723" y1="1678" x2="1723" y2="1732" stroke-width="1"/>
<line x1="1723" y1="1590" x2="1723" y2="1688" stroke-width="1"/>
<line x1="1723" y1="652" x2="1723" y2="721" stroke-width="1"/>
<line x1="1855" y1="997" x2="1855" y2="1107" stroke-width="1"/>
<line x1="1855" y1="1375" x2="1855" y2="1433" stroke-width="1"/>
<line x1="1855" y1="691" x2="1855" y2="874" stroke-width="1"/>
<line x1="1855" y1="591" x2="1855" y2="721" stroke-width="1"/>
<line x1="1855" y1="2071" x2="1855" y2="2131" stroke-width="1"/>
<line x1="1855" y1="345" x2="1855" y2="417" stroke-width="1"/>
<line x1="1855" y1="440" x2="1855" y2="518" stroke-width="1"/>
<line x1="1855" y1="234" x2="1855" y2="282" stroke-width="1"/>
<line x1="1855" y1="1980" x2="1855" y2="2117" stroke-width="1"/>
<line x1="1977" y1="828" x2="1977" y2="1025" stroke-width="1"/>
<line x1="1977" y1="539" x2="1977" y2="666" stroke-width="1"/>
<line x1="1977" y1="96" x2="1977" y2="223" stroke-width="1"/>
<line x1="1977" y1="1666" x2="1977" y2="1754" stroke-width="1"/>
<line x1="1977" y1="1139" x2="1977" y2="1224" stroke-width="1"/>
<line x1="1977" y1="335" x2="1977" y2="412" stroke-width="1"/>
<line x1="1977" y1="1913" x2="1977" y2="2086" stroke-width="1"/>
<line x1="1977" y1="-69" x2="1977" y2="30" stroke-width="1"/>
<line x1="1977" y1="1423" x2="1977" y2="1487" stroke-width="1"/>
<line x1="2117" y1="844" x2="2117" y2="1029" stroke-width="1"/>
<line x1="2117" y1="1698" x2="2117" y2="1892" stroke-width="1"/>
<line x1="2117" y1="208" x2="2117" y2="289" stroke-width="1"/>
<line x1="2117" y1="561" x2="2117" y2="714" stroke-width="1"/>
<line x1="2117" y1="1408" x2="2117" y2="1512" stroke-width="1"/>
<line x1="2117" y1="1163" x2="2117" y2="1353" stroke-width="1"/>
<line x1="2117" y1="66" x2="2117" y2="255" stroke-width="1"/>
<line x1="2117" y1="1504" x2="2117" y2="1549" stroke-width="1"/>
<line x1="2117" y1="1111" x2="2117" y2="1191" stroke-width="1"/>
<line x1="2232" y1="-74" x2="2232" y2="39" stroke-width="1"/>
<line x1="2232" y1="1091" x2="2232" y2="1205" stroke-width="1"/>
<line x1="2232" y1="386" x2="2232" y2="552" stroke-width="1"/>
<line x1="2232" y1="1631" x2="2232" y2="1689" stroke-width="1"/>
<line x1="2232" y1="45" x2="2232" y2="175" stroke-width="1"/>
<line x1="2232" y1="551" x2="2232" y2="746" stroke-width="1"/>
<line x1="2232" y1="1179" x2="2232" y2="1304" stroke-width="1"/>
<line x1="2232" y1="1219" x2="2232" y2="1267" stroke-width="1"/>
<line x1="2232" y1="1422" x2="2232" y2="1531" stroke-width="1"/>
<line x1="2370" y1="497" x2="2370" y2="541" stroke-width="1"/>
<line x1="2370" y1="1062" x2="2370" y2="1204" stroke-width="1"/>
<line x1="2370" y1="1596" x2="2370" y2="1767" stroke-width="1"/>
<line x1="2370" y1="813" x2="2370" y2="897" stroke-width="1"/>
<line x1="2370" y1="2026" x2="2370" y2="2170" stroke-width="1"/>
<line x1="2370" y1="103" x2="2370" y2="197" stroke-width="1"/>
<line x1="2370" y1="870" x2="2370" y2="976" stroke-width="1"/>
<line x1="2370" y1="551" x2="2370" y2="736" stroke-width="1"/>
<line x1="2370" y1="264" x2="2370" y2="415" stroke-width="1"/>
<line x1="2486" y1="-3" x2="2486" y2="88" stroke-width="1"/>
<line x1="2486" y1="419" x2="2486" y2="505" stroke-width="1"/>
<line x1="2486" y1="1110" x2="2486" y2="1165" stroke-width="1"/>
<line x1="2486" y1="922" x2="2486" y2="1008" stroke-width="1"/>
<line x1="2486" y1="1643" x2="2486" y2="1721" stroke-width="1"/>
<line x1="2486" y1="-107" x2="2486" y2="-58" stroke-width="1"/>
<line x1="2486" y1="1940" x2="2486" y2="2081" stroke-width="1"/>
<line x1="2486" y1="1707" x2="2486" y2="1765" stroke-width="1"/>
<line x1="2486" y1="558" x2="2486" y2="748" stroke-width="1"/>
<line x1="2618" y1="1660" x2="2618" y2="1733" stroke-width="1"/>
<line x1="2618" y1="1838" x2="2618" y2="2034" stroke-width="1"/>
<line x1="2618" y1="252" x2="2618" y2="386" stroke-width="1"/>
<line x1="2618" y1="1936" x2="2618" y2="2016" stroke-width="1"/>
<line x1="2618" y1="832" x2="2618" y2="1018" stroke-width="1"/>
<line x1="2618" y1="1865" x2="2618" y2="1958" stroke-width="1"/>
<line x1="2618" y1="291" x2="2618" y2="442" stroke-width="1"/>
<line x1="2618" y1="706" x2="2618" y2="790" stroke-width="1"/>
<line x1="2618" y1="431" x2="2618" y2="592" stroke-width="1"/>
<line x1="2756" y1="897" x2="2756" y2="981" stroke-width="1"/>
<line x1="2756" y1="930" x2="2756" y2="1012" stroke-width="1"/>
<line x1="2756" y1="1992" x2="2756" y2="2161" stroke-width="1"/>
<line x1="2756" y1="196" x2="2756" y2="296" stroke-width="1"/>
<line x1="2756" y1="865" x2="2756" y2="1039" stroke-width="1"/>
<line x1="2756" y1="808" x2="2756" y2="955" stroke-width="1"/>
<line x1="2756" y1="1499" x2="2756" y2="1673" stroke-width="1"/>
<line x1="2756" y1="176" x2="2756" y2="277" stroke-width="1"/>
<line x1="2756" y1="906" x2="2756" y2="1028" stroke-width="1"/>
<line x1="2885" y1="1248" x2="2885" y2="1414" stroke-width="1"/>
<line x1="2885" y1="654" x2="2885" y2="718" stroke-width="1"/>
<line x1="2885" y1="1" x2="2885" y2="50" stroke-width="1"/>
<line x1="2885" y1="1668" x2="2885" y2="1723" stroke-width="1"/>
<line x1="2885" y1="1171" x2="2885" y2="1259" stroke-width="1"/>
<line x1="2885" y1="84" x2="2885" y2="198" stroke-width="1"/>
<line x1="2885" y1="638" x2="2885" y2="746" stroke-width="1"/>
<line x1="2885" y1="924" x2="2885" y2="966" stroke-width="1"/>
<line x1="2885" y1="2052" x2="2885" y2="2167" stroke-width="1"/>
<line x1="3001" y1="1373" x2="3001" y2="1442" stroke-width="1"/>
<line x1="3001" y1="532" x2="3001" y2="660" stroke-width="1"/>
<line x1="3001" y1="1474" x2="3001" y2="1550" stroke-width="1"/>
<line x1="3001" y1="1129" x2="3001" y2="1304" stroke-width="1"/>
<line x1="3001" y1="946" x2="3001" y2="1036" stroke-width="1"/>
<line x1="3001" y1="1733" x2="3001" y2="1787" stroke-width="1"/>
<line x1="3001" y1="-9" x2="3001" y2="121" stroke-width="1"/>
<line x1="3001" y1="828" x2="3001" y2="904" stroke-width="1"/>
<line x1="3001" y1="200" x2="3001" y2="337" stroke-width="1"/>
<line x1="3126" y1="1182" x2="3126" y2="1318" stroke-width="1"/>
<line x1="3126" y1="883" x2="3126" y2="1060" stroke-width="1"/>
<line x1="3126" y1="508" x2="3126" y2="566" stroke-width="1"/>
<line x1="3126" y1="-32" x2="3126" y2="15" stroke-width="1"/>
<line x1="3126" y1="600" x2="3126" y2="694" stroke-width="1"/>
<line x1="3126" y1="789" x2="3126" y2="916" stroke-width="1"/>
<line x1="3126" y1="928" x2="3126" y2="986" stroke-width="1"/>
<line x1="3126" y1="-117" x2="3126" y2="34" stroke-width="1"/>
<line x1="3126" y1="346" x2="3126" y2="497" stroke-width="1"/>
<line x1="3255" y1="1394" x2="3255" y2="1561" stroke-width="1"/>
<line x1="3255" y1="1615" x2="3255" y2="1797" stroke-width="1"/>
<line x1="3255" y1="1419" x2="3255" y2="1602" stroke-width="1"/>
<line x1="3255" y1="956" x2="3255" y2="1079" stroke-width="1"/>
<line x1="3255" y1="1292" x2="3255" y2="1361" stroke-width="1"/>
<line x1="3255" y1="999" x2="3255" y2="1174" stroke-width="1"/>
<line x1="3255" y1="877" x2="3255" y2="933" stroke-width="1"/>
<line x1="3255" y1="16" x2="3255" y2="112" stroke-width="1"/>
<line x1="3255" y1="973" x2="3255" y2="1096" stroke-width="1"/>
<line x1="3394" y1="989" x2="3394" y2="1107" stroke-width="1"/>
<line x1="3394" y1="875" x2="3394" y2="969" stroke-width="1"/>
<line x1="3394" y1="1691" x2="3394" y2="1844" stroke-width="1"/>
<line x1="3394" y1="2018" x2="3394" y2="2062" stroke-width="1"/>
<line x1="3394" y1="952" x2="3394" y2="1011" stroke-width="1"/>
<line x1="3394" y1="1450" x2="3394" y2="1521" stroke-width="1"/>
<line x1="3394" y1="-48" x2="3394" y2="64" stroke-width="1"/>
<line x1="3394" y1="1904" x2="3394" y2="2057" stroke-width="1"/>
<line x1="3394" y1="1624" x2="3394" y2="1746" stroke-width="1"/>
<line x1="3520" y1="843" x2="3520" y2="1037" stroke-width="1"/>
<line x1="3520" y1="2069" x2="3520" y2="2136" stroke-width="1"/>
<line x1="3520" y1="1053" x2="3520" y2="1194" stroke-width="1"/>
<line x1="3520" y1="733" x2="3520" y2="790" stroke-width="1"/>
<line x1="3520" y1="1025" x2="3520" y2="1181" stroke-width="1"/>
<line x1="3520" y1="1887" x2="3520" y2="2013" stroke-width="1"/>
<line x1="3520" y1="228" x2="3520" y2="273" stroke-width="1"/>
<line x1="3520" y1="74" x2="3520" y2="258" stroke-width="1"/>
<line x1="3520" y1="222" x2="3520" y2="295" stroke-width="1"/>
<line x1="3655" y1="667" x2="3655" y2="815" stroke-width="1"/>
<line x1="3655" y1="-48" x2="3655" y2="-3" stroke-width="1"/>
<line x1="3655" y1="377" x2="3655" y2="499" stroke-width="1"/>
<line x1="3655" y1="773" x2="3655" y2="865" stroke-width="1"/>
<line x1="3655" y1="317" x2="3655" y2="360" stroke-width="1"/>
<line x1="3655" y1="1640" x2="3655" y2="1753" stroke-width="1"/>
<line x1="3655" y1="630" x2="3655" y2="704" stroke-width="1"/>
<line x1="3655" y1="1054" x2="3655" y2="1139" stroke-width="1"/>
<line x1="3655" y1="1581" x2="3655" y2="1647" stroke-width="1"/>
<line x1="3772" y1="636" x2="3772" y2="783" stroke-width="1"/>
<line x1="3772" y1="1461" x2="3772" y2="1525" stroke-width="1"/>
<line x1="3772" y1="198" x2="3772" y2="306" stroke-width="1"/>
<line x1="3772" y1="2036" x2="3772" y2="2153" stroke-width="1"/>
<line x1="3772" y1="904" x2="3772" y2="984" stroke-width="1"/>
<line x1="3772" y1="1002" x2="3772" y2="1073" stroke-width="1"/>
<line x1="3772" y1="23" x2="3772" y2="217" stroke-width="1"/>
<line x1="3772" y1="166" x2="3772" y2="270" stroke-width="1"/>
<line x1="3772" y1="1819" x2="3772" y2="1959" stroke-width="1"/>
</g>
</svg>